<svg xmlns="http://www.w3.org/2000/svg" viewBox="0 0 698.9 324.6"><path fill="#fff" stroke="#fcb69e" stroke-miterlimit="10" stroke-width="3" d="M678.7 92.4c2.3 3.1 14.4 19.6 17.9 44.7 2.6 19.4-1.2 34.4-3.4 42.7-2.5 9.2-4.8 17.9-11.8 27.3-2.5 3.3-11.3 15-27.2 21.3-15.1 6-18.9 0-37.8 6.2-9.3 3.1-19.1 6.4-26.2 16-7.4 10-7.6 20.9-7.6 24.2 0 11.3 4.4 19.5 7.1 24.3 8.9 15.8 20.8 20.6 19.6 23-1.7 3.5-26.8-3.2-52.9-16.7-23.6-12.2-22.2-16.5-37.7-23.4-25.4-11.2-49.5-8.4-77.5-5.1C411 280.4 386 289 374.4 293c-19 6.6-22.7 9.7-39.5 13.8-20.8 5-37.3 5.6-51.3 6-19.9.6-30 .8-39.3-3.2-13.9-6-23.7-17-28.7-22.6-6.1-6.9-5.7-8.3-14.3-19.2-7.6-9.8-14.1-18-21.8-24.4-16.2-13.4-35.1-15.8-47.2-17.4-19.4-2.5-20.7 2.1-47.4-.4-16.9-1.6-27.3-4.5-32.3-6-13.2-4-23.8-7.2-32.6-16.2-2-2-8.6-9.1-13.6-27.4-2.8-10.3-10.2-38.6 1.4-71.9C9.9 98 19.4 72.6 44.6 51.7c22.4-18.5 45.1-23 89.5-31.2 35.3-6.5 31.5-2.5 101.4-11 48.9-6 58.5-8.9 84.2-7.9 15.8.6 18.2 2 58.4 4.7 21.6 1.5 24.3 1.3 51.7 3.1 30.8 2 46.5 3 60.6 4.9 10.1 1.3 9.2 1.5 53.4 9.9 51.4 9.8 57.7 10.5 69.8 16.9 8.8 4.7 17.3 11.2 34.2 24.2 16.3 12.5 24.6 19 30.6 27h.3Z"/></svg>