<svg xmlns="http://www.w3.org/2000/svg" viewBox="0 0 698.1 319.7"><path fill="#fff" stroke="#fcb69e" stroke-miterlimit="10" stroke-width="3" d="M25.2 64.6c-2.6 2.9-16 18.4-21.4 43.2-4.2 19.2-1.5 34.4 0 42.8 1.7 9.4 3.3 18.2 9.5 28.2 2.2 3.5 10.1 15.9 25.4 23.4 14.6 7.2 18.9 1.6 37.2 9.3 9 3.8 18.5 7.9 24.8 18 6.6 10.5 5.9 21.5 5.6 24.8-.8 11.3-6 19.1-9 23.7-10.1 15.1-22.4 18.8-21.4 21.4 1.4 3.6 27-1.1 54.1-12.4 24.5-10.2 23.5-14.7 39.4-20.3 26.2-9.2 50-4.4 77.7 1.1 29.8 6 54.1 16.5 65.3 21.4 18.4 8.1 21.8 11.5 38.3 16.9 20.3 6.7 36.7 8.6 50.7 10.1 19.8 2.2 29.9 3.2 39.4 0 14.4-4.8 25-15 30.4-20.3 6.6-6.4 6.4-7.8 15.8-18 8.4-9.1 15.5-16.8 23.6-22.5 17.3-12.1 36.3-12.9 48.4-13.5 19.6-.9 20.4 3.8 47.3 3.4 16.9-.2 27.6-2.3 32.7-3.4 13.5-2.9 24.3-5.3 33.8-13.5 2.1-1.8 9.3-8.4 15.8-26.2 3.7-10.1 13.3-37.7 4.4-71.8-1.6-6.3-9-32.4-32.5-55.2-20.9-20.3-43.1-26.5-86.7-38.3-34.7-9.3-31.2-5-100.2-19.1C425.3 7.9 416 4.2 390.3 3.2c-15.8-.6-18.4.5-58.6 0-21.7-.3-24.3-.7-51.8-1.1-30.9-.5-46.6-.7-60.8 0-10.2.5-9.3.8-54.1 5.6-52 5.6-58.4 5.8-70.9 11.3-9.2 4-18.1 9.8-36 21.4-17.2 11.2-26 16.9-32.7 24.4z"/></svg>