<svg width="62" height="62" viewBox="0 0 62 62" fill="none" xmlns="http://www.w3.org/2000/svg">
<path d="M24.542 2.58301C18.1523 2.58301 12.917 7.81829 12.917 14.208C12.917 17.9348 14.8117 21.118 17.564 23.2497C14.8117 25.3814 12.917 28.5645 12.917 32.2913C12.917 36.0182 14.8117 39.2013 17.564 41.333C14.8117 43.4647 12.917 46.6478 12.917 50.3747C12.917 56.7644 18.1523 61.9997 24.542 61.9997C30.9317 61.9997 36.167 56.7644 36.167 50.3747V41.333V25.833H42.6253C49.015 25.833 54.2503 20.5977 54.2503 14.208C54.2503 7.81829 49.015 2.58301 42.6253 2.58301H33.5837H24.542ZM24.542 7.74967H31.0003V20.6663H24.542C20.9445 20.6663 18.0837 17.8055 18.0837 14.208C18.0837 10.6106 20.9445 7.74967 24.542 7.74967ZM36.167 7.74967H42.6253C46.2228 7.74967 49.0837 10.6106 49.0837 14.208C49.0837 17.8055 46.2228 20.6663 42.6253 20.6663H36.167V7.74967ZM24.542 25.833H31.0003V38.7497H24.542C20.9445 38.7497 18.0837 35.8888 18.0837 32.2913C18.0837 28.6939 20.9445 25.833 24.542 25.833ZM43.917 25.833C41.8616 25.833 39.8903 26.6495 38.4369 28.1029C36.9835 29.5563 36.167 31.5276 36.167 33.583C36.167 35.6384 36.9835 37.6097 38.4369 39.0631C39.8903 40.5165 41.8616 41.333 43.917 41.333C45.9724 41.333 47.9437 40.5165 49.3971 39.0631C50.8505 37.6097 51.667 35.6384 51.667 33.583C51.667 31.5276 50.8505 29.5563 49.3971 28.1029C47.9437 26.6495 45.9724 25.833 43.917 25.833ZM24.542 43.9163H31.0003V50.3747C31.0003 53.9721 28.1394 56.833 24.542 56.833C20.9445 56.833 18.0837 53.9721 18.0837 50.3747C18.0837 46.7772 20.9445 43.9163 24.542 43.9163Z" fill="black"/>
</svg>
