<svg width="70" height="70" viewBox="0 0 70 70" fill="none" xmlns="http://www.w3.org/2000/svg">
<path d="M8.39961 5.59961C6.86932 5.59961 5.59961 6.86932 5.59961 8.39961V61.5996C5.59961 63.1299 6.86932 64.3996 8.39961 64.3996H61.5996C63.1299 64.3996 64.3996 63.1299 64.3996 61.5996V8.39961C64.3996 6.86932 63.1299 5.59961 61.5996 5.59961H8.39961ZM8.39961 8.39961H61.5996V61.5996H8.39961V8.39961ZM26.0199 19.5996C24.0039 19.5996 22.3911 19.8236 21.0023 20.182L20.9996 50.3996H24.4504V37.5617C24.9432 37.6051 25.391 37.6055 25.9734 37.6055C28.6614 37.6055 31.4837 36.4877 33.0965 34.2477C34.2627 32.7245 34.9312 30.8428 34.9312 28.0652C34.9312 25.4234 34.1705 23.2262 32.7383 21.7926C31.1703 20.2694 28.7961 19.5996 26.0199 19.5996ZM26.5668 21.8965C30.4182 21.8965 31.6719 24.6705 31.6719 27.7617C31.6719 32.0177 29.3867 34.2586 26.0281 34.2586C25.4457 34.2586 25.0423 34.2145 24.6391 34.1711V22.1207C25.0871 21.9849 25.7604 21.8965 26.5668 21.8965ZM44.4031 27.9996C40.9157 27.9996 38.2207 30.4757 38.2207 34.0289C38.2207 36.5027 39.7982 38.3921 42.727 40.2359C45.0034 41.6751 45.6063 42.8452 45.6063 44.5098C45.6063 46.4432 44.3078 47.657 42.3086 47.657C40.8666 47.657 39.4724 47.0274 38.6828 46.5332L37.7996 49.1391C38.7754 49.9035 40.5888 50.3996 42.2156 50.3996C45.934 50.3996 48.9996 48.2857 48.9996 43.9219C48.9996 40.9091 46.9564 38.8835 44.3566 37.2637C42.125 35.8259 41.5676 34.9704 41.5676 33.5312C41.5676 32.0935 42.5415 30.7449 44.4469 30.7449C45.6551 30.7449 46.5864 31.1496 47.4684 31.7348L48.398 29.1234C47.4684 28.5396 46.1699 27.9996 44.4031 27.9996Z" fill="black"/>
</svg>
