<?xml version="1.0" encoding="UTF-8"?>
<svg id="_レイヤー_1" data-name=" レイヤー 1" xmlns="http://www.w3.org/2000/svg" viewBox="0 0 104.9 198.8">
  <defs>
    <style>
      .cls-1 {
        fill: none;
      }

      .cls-2 {
        fill: #f4eee2;
      }

      .cls-3 {
        fill: #fcb69e;
      }
    </style>
  </defs>
  <path class="cls-2" d="M0,66.7V0h8.1l-.3,31.9-3.6-2.7h35.3l-3.6,2.7L35.7,0h8.1v66.7h-8.1l.2-33.1,3.6,2.7H4.2l3.6-2.7.3,33.1H0ZM36.6,132.7l-28.1-34.3,27.3-31.7h8.1l-25.8,31.1v.6l29.4,34.4h-10.8l-.1-.1ZM0,132.1l.3-33.6-.3-32.5h8.1v66.1H0ZM57.4,132.7l18.1-66.7h11.3l18.1,66.7h-8.3l-5.1-20,4,2.3h-28.8l3.8-2.3-5.1,20h-8.3.3ZM70.9,111.7l-2.7-3.7h25.9l-2.7,3.7-10.8-42.1,4.5,3.6h-7.9l4.5-3.6-10.8,42.1ZM0,198.8l.5-31.6-.3-35.2c.7,0,1.9-.3,3.5-.4,1.6-.1,3.4-.3,5.5-.4s4.1-.2,6.3-.3,4.2-.2,6.1-.2c4.4,0,8.1.7,11.3,2s5.7,3.6,7.4,6.6,2.6,7.1,2.6,12.1-1.2,10-3.7,13.3c-2.4,3.3-6,5.4-10.6,6.5v.3l15.1,27.2h-9.5l-13.5-26.5-12.5-.5v27H0c0,.07,0,.1,0,.1ZM22.4,165.5c4.7,0,7.9-1.1,9.4-3.4,1.6-2.3,2.4-5.9,2.4-10.8s-.4-7-1.1-9c-.6-2.1-1.5-3.5-2.7-4.1-.7-.4-1.8-.8-3.3-1-1.4-.3-2.9-.4-4.6-.4-2.6,0-5.3.1-8.1.4-2.7.3-4.8.5-6.2.7l-.2,26.6c2.2.3,4.6.5,7.1.7,2.6.2,5,.3,7.2.3,0,0,.1,0,0,0h.1ZM77.1,198.8l.3-30.6-.3-36.2h8.2l-.4,29.5.4,37.2h-8.2v.1Z"/>
  <path class="cls-1" d="M75.4,66.8l.3-30.6-.3-36.2h8.2l-.4,29.5.4,37.2h-8.2v.1Z"/>
  <path class="cls-3" d="M77.1,66l.3-30.2L77.1,0h8.2l-.4,29.1.4,36.8h-8.2v.1Z"/>
</svg>