<svg width="1242" height="785" viewBox="0 0 1242 785" fill="none" xmlns="http://www.w3.org/2000/svg">
<mask id="mask0_167_234" style="mask-type:alpha" maskUnits="userSpaceOnUse" x="0" y="0" width="1512" height="785">
<rect width="1512" height="785" fill="#D9E7D0" fill-opacity="0.27"/>
</mask>
<g mask="url(#mask0_167_234)">
<path d="M37.7555 -8.96582C37.7698 13.1298 37.8414 35.2323 37.7913 57.3279C37.7412 78.1708 37.5764 99.0205 37.4189 119.863C37.1682 152.8 36.8387 185.737 36.6167 218.681C36.3732 255.491 36.2586 292.308 36.0151 329.119C35.7931 362.469 35.3276 395.819 35.2201 429.169C35.1055 465.024 35.1915 500.887 35.3562 536.742C35.435 554.111 35.7429 571.474 36.2085 588.836C36.982 617.588 37.9059 646.333 38.8728 675.085C39.3383 688.839 39.9757 702.578 40.6418 716.324C41.6731 737.56 42.7761 758.789 43.8934 780.018C45.1038 802.913 46.3428 825.801 47.6177 848.688C48.7708 869.362 49.9883 890.029 51.17 910.696C52.0438 925.952 52.9391 941.208 53.7556 956.465C54.9803 979.36 56.1477 1002.26 57.3438 1025.16C58.2104 1041.81 59.1128 1058.45 59.9364 1075.1C61.1683 1099.95 62.393 1124.79 63.5246 1149.64C64.47 1170.46 65.2936 1191.28 66.1316 1212.11C67.0555 1235.16 67.9221 1258.21 68.8389 1281.26C69.376 1294.87 69.8416 1308.49 70.5578 1322.08C71.4315 1338.59 72.3053 1355.09 73.6088 1371.58C74.4969 1382.8 75.1343 1394.03 75.7216 1405.26C75.8147 1406.97 76.8246 1408.73 75.8864 1410.5C74.4826 1410.19 74.8837 1409.18 74.8264 1408.45C73.5515 1390.44 72.334 1372.42 71.0448 1354.41C69.7843 1336.8 69.0824 1319.18 68.2802 1301.55C67.3277 1280.45 66.4611 1259.35 65.7377 1238.24C65.222 1223.11 64.5846 1207.97 63.9543 1192.85C63.1092 1172.58 62.2641 1152.31 61.3187 1132.05C60.2157 1108.32 59.0483 1084.59 57.8379 1060.86C56.4055 1032.83 54.9086 1004.81 53.4046 976.78C51.9722 950.14 50.504 923.508 48.9999 896.868C47.8898 877.17 46.6651 857.485 45.5407 837.786C44.3088 816.28 43.0841 794.78 41.9453 773.273C40.5559 747.054 39.0876 720.834 37.9704 694.608C36.8029 667.258 35.9148 639.9 35.0984 612.543C34.554 594.206 34.3965 575.862 33.9668 557.524C32.9999 516.536 33.2076 475.541 33.3795 434.545C33.4511 417.732 33.537 400.918 33.8092 384.104C34.2461 357.011 34.0742 329.911 34.4466 302.818C34.862 272.949 34.9408 243.079 35.0769 213.21C35.1771 191.669 35.2846 170.129 35.4421 148.588C35.6284 122.897 35.9435 97.2058 36.0581 71.5144C36.1727 45.3829 36.1225 19.2513 36.1369 -6.88017C36.1369 -7.57088 36.0509 -8.26835 36.0079 -8.95905H37.7698L37.7555 -8.96582Z" fill="#07558E"/>
<path d="M558.545 -8.96595C558.445 13.5495 557.758 36.0447 557.027 58.5467C556.404 77.5748 556.196 96.6233 555.688 115.658C555.014 140.936 554.162 166.208 553.503 191.48C552.98 211.625 552.687 231.77 552.178 251.916C551.326 285.537 550.388 319.164 549.478 352.785C549.213 362.509 548.984 372.233 548.647 381.957C547.938 402.231 547.1 422.499 546.449 442.78C545.883 460.277 545.561 477.789 545.038 495.286C543.992 530.709 543.584 566.137 543.247 601.573C543.011 626.845 542.896 652.116 543.039 677.388C543.254 715.458 543.398 753.521 543.484 791.59C543.605 845.235 543.562 898.886 543.741 952.53C543.842 981.98 544.221 1011.43 544.522 1040.88C544.823 1069.92 545.016 1098.97 545.589 1128C546.033 1150.51 545.969 1173.03 546.441 1195.54C547.358 1239.45 546.828 1283.37 547.236 1327.28C547.401 1345.35 547.695 1363.42 548.16 1381.48C548.39 1390.22 549.163 1398.95 549.672 1407.68C549.722 1408.49 549.672 1409.3 549.435 1410.13C547.989 1405.81 548.096 1401.34 547.831 1396.91C546.42 1372.9 546.399 1348.86 545.969 1324.84C545.224 1283.17 545.596 1241.49 545.109 1199.81C544.758 1169.8 544.114 1139.79 543.641 1109.79C543.061 1072.56 542.746 1035.33 542.424 998.09C542.116 962.383 541.886 926.683 541.865 890.977C541.851 859.712 541.836 828.448 541.765 797.19C541.693 764.531 541.493 731.865 541.464 699.206C541.45 684.803 541.399 670.393 541.45 655.983C541.571 623.628 541.514 591.267 542.022 558.912C542.467 530.58 543.183 502.248 543.892 473.915C544.279 458.219 544.873 442.529 545.396 426.839C545.94 410.452 546.556 394.065 547.057 377.678C547.759 354.905 548.289 332.125 549.063 309.352C549.894 284.772 550.202 260.177 550.875 235.59C551.562 210.311 552.107 185.033 552.658 159.755C553.102 139.338 553.668 118.929 554.377 98.5261C555.122 76.9992 555.501 55.4656 556.16 33.932C556.554 21.0118 556.755 8.09166 556.927 -4.82851C556.948 -6.20992 556.826 -7.59809 556.769 -8.97949H558.531L558.545 -8.96595Z" fill="#07558E"/>
<path d="M728.623 -8.96601C729.032 -3.96182 728.58 1.03561 728.344 6.01949C727.098 31.975 725.787 57.9236 724.742 83.8859C723.846 106.097 722.536 128.287 721.318 150.484C720.237 170.183 719.084 189.881 717.844 209.566C716.441 231.892 714.901 254.211 713.425 276.531C712.58 289.281 711.764 302.039 710.904 314.79C709.572 334.468 708.176 354.146 706.872 373.825C706.156 384.632 705.59 395.453 704.917 406.267C703.85 423.325 702.718 440.376 701.658 457.433C701.157 465.478 700.749 473.523 700.29 481.567C699.237 500.291 698.127 519.021 697.146 537.751C696.559 548.992 696.258 560.246 695.678 571.48C694.51 593.955 693.902 616.45 693.114 638.932C691.954 672.119 691.23 705.32 690.457 738.515C689.862 763.935 689.225 789.356 688.731 814.776C688.315 835.897 687.663 857.011 686.954 878.118C686.016 906.165 684.913 934.207 683.925 962.254C683.467 975.31 683.13 988.366 682.714 1001.42C681.454 1040.74 680.795 1080.07 680.852 1119.4C680.888 1147.06 680.938 1174.71 680.766 1202.37C680.63 1225.03 680.38 1247.68 679.8 1270.33C679.427 1284.91 679.477 1299.51 679.026 1314.09C678.303 1337.85 678.568 1361.6 678.489 1385.36C678.46 1393.39 679.477 1401.43 678.589 1409.53C678.31 1405.99 677.837 1402.45 677.787 1398.9C677.343 1364.99 677.207 1331.08 677.923 1297.18C678.253 1281.48 678.26 1265.78 678.625 1250.08C680.057 1189.08 678.682 1128.06 679.556 1067.06C679.957 1039.27 680.466 1011.48 681.697 983.714C682.335 969.419 682.521 955.104 682.994 940.795C683.796 916.357 684.698 891.918 685.486 867.479C685.937 853.449 686.26 839.418 686.596 825.387C687.162 801.775 687.699 778.162 688.236 754.543C688.852 727.741 689.354 700.932 690.099 674.137C690.829 648.04 691.681 621.935 692.72 595.844C693.73 570.451 694.983 545.057 696.251 519.671C696.989 504.828 697.905 489.991 698.851 475.161C700.147 454.786 701.572 434.417 702.897 414.041C703.635 402.678 704.208 391.302 704.967 379.946C706.285 360.132 707.71 340.326 709.042 320.512C709.723 310.395 710.281 300.265 710.947 290.148C712.086 272.684 713.311 255.227 714.414 237.756C715.904 214.327 717.357 190.897 718.747 167.467C719.542 154.012 720 140.544 720.931 127.102C722.371 106.449 722.801 85.7481 723.975 65.0812C724.87 49.2696 725.236 33.4308 726.224 17.6192C726.783 8.75521 726.475 -0.156189 727.742 -8.98633H728.623V-8.96601Z" fill="#07558E"/>
<path d="M406.101 -8.96582C404.84 -4.19186 405.298 0.703993 405.148 5.5389C404.296 32.9028 403.4 60.2668 402.899 87.6375C402.233 124.028 401.696 160.425 401.76 196.822C401.832 238.657 401.875 280.492 401.853 322.334C401.832 364.019 401.725 405.712 401.624 447.398C401.488 503.548 401.345 559.698 401.968 615.848C402.326 647.945 402.978 680.042 403.751 712.133C404.396 738.941 405.327 765.743 406.301 792.545C407.053 813.232 408.063 833.913 408.958 854.593C409.524 867.778 409.982 880.969 410.67 894.146C412.045 920.65 413.349 947.154 414.294 973.671C415.11 996.58 416.264 1019.48 416.937 1042.4C417.717 1068.92 418.885 1095.44 419.508 1121.97C419.909 1138.78 420.539 1155.58 421.263 1172.38C422.05 1190.57 422.373 1208.77 423.06 1226.96C423.991 1251.68 424.242 1276.41 424.858 1301.14C425.739 1336.3 425.331 1371.46 425.538 1406.63C425.538 1407.72 425.725 1408.84 425.094 1410.17C424.163 1408.55 424.557 1407.05 424.55 1405.64C424.493 1380.9 424.729 1356.16 424.357 1331.41C424.077 1313.08 423.841 1294.73 423.526 1276.39C423.189 1256.8 422.38 1237.23 421.75 1217.65C421.205 1200.71 420.826 1183.77 419.995 1166.84C419.157 1149.77 418.699 1132.68 418.154 1115.6C417.323 1089.64 416.156 1063.69 415.554 1037.72C415.203 1022.72 414.451 1007.73 413.821 992.74C412.983 972.751 412.21 952.761 411.178 932.785C410.219 914.197 409.323 895.602 408.528 877.007C407.619 855.636 406.401 834.278 405.399 812.907C404.947 803.332 404.69 793.751 404.367 784.169C403.515 758.897 402.498 733.626 401.868 708.347C401.223 682.507 401.037 656.66 400.528 630.82C399.397 572.733 399.827 514.64 399.898 456.553C399.934 424.314 400.163 392.067 400.17 359.828C400.177 310.795 400.149 261.755 399.991 212.722C399.855 171.321 400.314 129.919 401.13 88.5246C401.703 59.3526 402.749 30.1874 403.63 1.01549C403.73 -2.31613 404.088 -5.6342 404.324 -8.95905H406.086L406.101 -8.96582Z" fill="#07558E"/>
<path d="M1204.47 -8.96582C1204.96 -3.13549 1204.41 2.6813 1204.18 8.49808C1203.68 21.2761 1203.1 34.0472 1202.52 46.8184C1201.43 70.4242 1201.22 94.0502 1200.65 117.669C1199.93 147.397 1199.03 177.124 1198.1 206.844C1197.27 232.956 1196.26 259.067 1195.35 285.178C1194.77 301.978 1194.29 318.785 1193.63 335.586C1192.85 355.447 1192.4 375.308 1191.87 395.176C1191.07 425.316 1189.82 455.443 1189.25 485.596C1188.88 505.322 1188.08 525.034 1187.49 544.753C1186.9 564.343 1186.59 583.94 1185.72 603.517C1184.32 635.032 1183.81 666.574 1182.68 698.095C1182 716.981 1181.78 735.881 1181.33 754.773C1180.76 778.393 1180.35 802.019 1179.5 825.631C1179.02 838.971 1179.05 852.311 1178.57 865.651C1177.36 899.123 1177.19 932.615 1176.88 966.101C1176.39 1017.65 1177.23 1069.2 1177.47 1120.75C1177.76 1181.47 1178.36 1242.19 1177.72 1302.91C1177.48 1325.42 1177.58 1347.94 1176.89 1370.45C1176.5 1383.23 1176.23 1396.01 1176.21 1408.79C1176.21 1409.2 1176.08 1409.61 1175.9 1410.63C1174.86 1407.88 1175.01 1405.56 1175.03 1403.33C1175.22 1381.8 1175.31 1360.27 1175.79 1338.75C1176.92 1288.02 1176.19 1237.29 1176.31 1186.56C1176.37 1159.19 1176.43 1131.8 1175.91 1104.42C1175.23 1068.71 1175.37 1032.99 1175.19 997.277C1175.06 970.32 1175.23 943.348 1175.69 916.391C1176.32 879.716 1177.23 843.048 1178.29 806.38C1178.99 781.792 1179.36 757.191 1180.07 732.61C1180.94 702.057 1181.73 671.503 1182.68 640.957C1183.56 612.902 1184.59 584.847 1185.34 556.786C1186.15 526.646 1187.22 496.512 1187.98 466.372C1188.73 436.367 1190.02 406.376 1190.63 376.371C1190.98 358.731 1191.76 341.091 1192.35 323.458C1193.23 296.656 1194.02 269.861 1195.02 243.066C1195.68 225.568 1196.3 208.07 1196.79 190.566C1197.71 158.062 1198.88 125.572 1199.39 93.0548C1199.57 80.9675 1199.85 68.8802 1200.32 56.8065C1201.1 36.6746 1202.06 16.5563 1202.98 -3.56887C1203.06 -5.36334 1203.39 -7.15104 1203.6 -8.94551H1204.48L1204.47 -8.96582Z" fill="#07558E"/>
<path d="M1044.97 -8.96588C1043.75 -0.819676 1044.21 7.39425 1044.01 15.5811C1043.18 51.4298 1042.88 87.2853 1043.17 123.141C1043.38 150.098 1043.76 177.056 1044.42 204.007C1045.23 236.93 1045.74 269.854 1046.24 302.777C1047.08 357.959 1046.88 413.134 1046.81 468.315C1046.78 491.515 1046.45 514.714 1046.22 537.914C1045.94 566.117 1045.95 594.321 1045.24 622.518C1044.92 635.16 1045.1 647.816 1044.78 660.459C1043.79 698.38 1043.74 736.314 1042.91 774.235C1042.49 793.134 1042.52 812.034 1042.01 830.927C1041.19 861.209 1040.32 891.492 1039.4 921.767C1038.93 936.902 1038.34 952.043 1037.7 967.171C1036.86 986.612 1036.54 1006.06 1035.9 1025.51C1035.14 1048.29 1034.55 1071.06 1034.11 1093.85C1033.66 1116.91 1033.14 1139.97 1032.39 1163.03C1031.51 1190.11 1030.69 1217.2 1030.42 1244.29C1030.17 1269.16 1030.14 1294.04 1029.81 1318.91C1029.54 1339.47 1027.83 1359.96 1025.91 1380.44C1025.05 1389.7 1024.38 1398.99 1023.06 1408.21C1022.95 1408.98 1023.15 1409.87 1022.27 1410.53C1021.11 1410.15 1021.55 1409.29 1021.65 1408.57C1023.57 1394.09 1024.45 1379.53 1025.71 1365C1026.93 1351.02 1027.97 1337.03 1028.13 1323C1028.33 1306.33 1028.33 1289.65 1028.52 1272.98C1028.79 1249.36 1029.08 1225.75 1029.53 1202.14C1029.9 1182.69 1030.53 1163.26 1031.04 1143.81C1031.82 1114.64 1032.58 1085.48 1033.38 1056.31C1033.99 1034.09 1034.6 1011.86 1035.3 989.646C1036.47 952.151 1037.93 914.664 1039.1 877.163C1040.01 847.856 1040.47 818.541 1041.06 789.234C1041.36 774.513 1041.64 759.791 1041.85 745.07C1042.12 725.757 1042.09 706.438 1042.59 687.125C1043.56 648.785 1043.74 610.437 1044.42 572.097C1045.02 538.476 1044.51 504.848 1045.24 471.234C1045.62 453.628 1045.52 436.015 1045.48 418.409C1045.39 383.183 1045.03 347.957 1044.86 312.732C1044.69 276.612 1043.75 240.506 1042.9 204.393C1042.52 187.999 1042.66 171.591 1042.13 155.204C1041.41 132.702 1041.43 110.2 1041.49 87.6916C1041.57 58.5129 1042.14 29.3477 1042.67 0.175747C1042.73 -2.87824 1043.03 -5.92545 1043.22 -8.97266H1044.99L1044.97 -8.96588Z" fill="#07558E"/>
<path d="M646.667 -8.96582C646.417 7.42817 646.044 23.8222 645.937 40.2162C645.808 60.9236 645.321 81.6176 644.626 102.305C643.953 122.159 643.015 142.007 642.012 161.854C640.966 182.528 639.734 203.194 638.531 223.861C637.364 243.973 636.146 264.085 634.914 284.196C633.661 304.585 632.329 324.961 631.441 345.371C630.646 363.694 629.736 382.018 628.855 400.335C627.645 425.6 627.093 450.892 626.155 476.17C625.052 505.891 624.314 535.618 623.419 565.345C622.753 587.434 622.409 609.523 621.743 631.612C620.554 671.07 620.254 710.535 619.774 749.999C619.38 782.374 619.48 814.756 619.315 847.131C619.201 869.782 619.265 892.426 618.878 915.077C618.463 939.251 618.549 963.44 618.227 987.614C617.489 1042.79 617.618 1097.97 617.768 1153.15C617.854 1184.97 618.205 1216.8 618.692 1248.62C619.079 1274.32 619.731 1300.03 620.476 1325.73C621.206 1350.88 622.202 1376 623.083 1401.14C623.19 1404.22 623.949 1407.29 623.319 1410.84C621.836 1409.64 622.173 1408.47 622.13 1407.46C620.841 1379 620.06 1350.52 619.072 1322.06C618.005 1291.5 617.618 1260.93 617.138 1230.36C616.658 1199.65 616.594 1168.94 616.415 1138.23C616.257 1112.44 616.049 1086.65 616.121 1060.86C616.2 1031.69 616.579 1002.53 616.801 973.353C617.066 938.06 617.353 902.766 617.539 867.466C617.718 833.838 617.711 800.204 617.912 766.576C618.062 741.711 618.291 716.839 618.699 691.974C619.172 663.35 619.831 634.727 620.497 606.11C620.963 586.107 621.557 566.104 622.137 546.107C622.724 525.833 623.319 505.552 623.985 485.278C624.801 460.555 625.639 435.832 626.606 411.116C627.365 391.681 628.275 372.247 629.235 352.819C630.015 337.001 630.932 321.189 631.856 305.378C632.988 286.106 634.191 266.834 635.373 247.562C636.246 233.281 637.063 218.993 638.044 204.718C639.169 188.358 639.949 171.991 640.708 155.617C641.697 134.382 642.728 113.153 643.394 91.9036C644.447 58.2895 644.805 24.6686 644.884 -8.95905H646.646L646.667 -8.96582Z" fill="#07558E"/>
<path d="M199.898 -8.96582C200.585 11.4505 200.6 31.8871 201.001 52.3102C201.688 86.764 202.118 121.225 202.777 155.678C203.586 197.926 203.407 240.167 203.751 282.415C204.303 350.767 204.646 419.127 204.346 487.479C204.202 519.989 203.529 552.5 203.021 585.017C202.512 618.089 202.462 651.168 202.856 684.247C203.214 714.259 203.866 744.264 204.625 774.269C205.284 800.38 206.244 826.491 207.139 852.596C207.69 868.705 208.313 884.808 209.001 900.911C210.125 927.293 210.813 953.682 211.615 980.077C212.639 1013.98 213.033 1047.87 213.384 1081.78C213.699 1112.21 213.964 1142.64 214.301 1173.07C214.53 1194.04 214.609 1215.01 215.175 1235.98C215.59 1251.26 215.554 1266.55 215.984 1281.83C216.901 1314.47 217.151 1347.12 217.753 1379.77C217.925 1388.93 218.39 1398.1 218.548 1407.27C218.562 1408.2 218.963 1409.21 218.154 1410.09C217.144 1409.21 217.552 1408.05 217.509 1407.04C217.159 1397.6 216.736 1388.16 216.571 1378.71C216.17 1356.07 216.099 1333.41 215.49 1310.77C215.06 1294.79 215.089 1278.8 214.594 1262.82C214.193 1249.77 214.222 1236.7 213.742 1223.65C212.79 1198.09 213.441 1172.52 212.782 1146.96C212.152 1122.22 212.446 1097.48 212.045 1072.75C211.536 1041.21 211.006 1009.68 210.211 978.147C209.581 953.147 208.671 928.153 207.626 903.166C206.609 878.734 205.714 854.302 204.933 829.857C204.367 812.081 203.651 794.313 203.157 776.537C202.355 747.521 201.86 718.498 201.359 689.475C200.893 662.802 200.944 636.129 201.065 609.462C201.166 588.491 201.323 567.512 201.932 546.554C202.713 519.752 202.842 492.937 202.935 466.135C203.107 418.754 202.62 371.38 202.376 323.999C202.097 269.678 201.939 215.356 201.438 161.035C201.094 124.069 200.256 87.1093 199.647 50.1501C199.361 32.6455 199.089 15.141 198.816 -2.36353C198.781 -4.57784 198.802 -6.79892 198.129 -8.95905H199.891L199.898 -8.96582Z" fill="#07558E"/>
<path d="M486.287 -8.96582C485.664 11.8703 485.112 32.7065 484.403 53.5426C483.63 76.3154 482.649 99.0815 481.861 121.861C480.708 155.191 479.641 188.514 478.946 221.857C478.466 244.643 478.265 267.423 477.965 290.209C477.649 314.668 477.513 339.12 477.191 363.579C476.754 396.645 476.274 429.711 475.709 462.769C475.107 497.636 474.513 532.51 473.675 567.377C472.944 597.659 472.443 627.948 471.841 658.231C471.333 683.936 471.361 709.648 470.982 735.353C470.273 783.14 470.523 830.933 470.645 878.72C470.781 928.871 471.118 979.028 471.626 1029.18C471.927 1058.77 472.564 1088.36 473.338 1117.95C473.983 1142.53 474.949 1167.11 475.959 1191.68C476.776 1211.53 477.922 1231.36 478.817 1251.2C479.397 1263.98 479.662 1276.76 480.285 1289.52C481.574 1316.04 481.761 1342.58 482.24 1369.12C482.477 1382.04 482.111 1394.95 482.069 1407.87C482.069 1408.67 482.219 1409.55 481.41 1410.29C480.443 1408.87 480.908 1407.34 480.915 1405.89C481.094 1384.49 481.116 1363.08 480.579 1341.69C480.128 1323.77 479.648 1305.85 478.996 1287.94C478.251 1267.4 477.47 1246.84 476.389 1226.31C475.307 1205.92 474.412 1185.51 473.624 1165.1C472.536 1136.92 471.59 1108.74 470.982 1080.54C470.538 1059.98 470.552 1039.41 470.151 1018.85C469.327 976.475 469.564 934.092 469.341 891.715C469.263 877.021 469.034 862.326 468.983 847.632C468.912 825.983 468.833 804.335 468.948 782.686C469.134 748.374 469.248 714.056 469.836 679.744C470.172 660.439 470.294 641.126 470.731 621.82C471.354 594.179 471.855 566.53 472.536 538.889C473.273 509.026 473.696 479.157 474.283 449.294C474.692 428.451 474.677 407.601 475.121 386.765C475.752 357.038 475.63 327.297 475.938 297.57C476.145 277.018 476.267 256.467 476.876 235.922C477.299 221.755 477.291 207.589 477.764 193.43C478.359 175.661 478.86 157.886 479.469 140.117C479.992 124.705 480.579 109.293 481.18 93.8809C481.983 73.3427 482.971 52.8045 483.623 32.2595C484.06 18.52 484.933 4.78725 484.511 -8.96582H486.273L486.287 -8.96582Z" fill="#07558E"/>
<path d="M118.823 -8.96588C119.947 1.42172 119.553 11.8499 119.926 22.2579C120.735 45.0375 120.37 67.8374 120.85 90.6237C121.587 125.775 121.408 160.933 121.673 196.091C121.838 218.173 122.153 240.255 122.01 262.337C121.63 321.514 121.702 380.698 121.129 439.875C120.649 489.774 120.663 539.674 120.828 589.567C120.95 626.093 121.136 662.626 121.738 699.152C122.081 720.272 122.175 741.393 122.604 762.507C122.969 780.709 123.213 798.911 123.585 817.113C124.072 840.596 124.495 864.073 125.204 887.55C126.178 919.77 126.873 952.002 127.897 984.222C128.885 1015.19 129.508 1046.18 130.547 1077.15C131.564 1107.57 132.187 1137.99 133.168 1168.41C133.856 1189.66 134.185 1210.91 134.887 1232.16C135.883 1262.16 136.019 1292.18 136.685 1322.18C137.315 1350.67 137.05 1379.16 137.315 1407.65C137.322 1408.57 137.63 1409.56 136.878 1410.59C135.503 1410.24 135.89 1409.14 135.883 1408.33C135.696 1380.26 135.704 1352.18 135.324 1324.11C134.916 1293.55 134.214 1262.99 133.541 1232.43C133.061 1210.62 132.459 1188.82 131.829 1167.01C131.048 1139.93 130.16 1112.86 129.351 1085.78C128.957 1072.58 128.678 1059.39 128.277 1046.2C127.582 1023.29 126.78 1000.39 126.121 977.484C125.591 959.011 125.218 940.531 124.753 922.052C124.137 897.891 123.564 873.723 122.841 849.562C122.038 822.476 121.63 795.383 121.179 768.283C120.821 746.607 120.692 724.931 120.32 703.255C119.725 668.239 119.603 633.23 119.496 598.214C119.431 576.417 119.002 554.612 119.066 532.815C119.202 486.978 119.56 441.148 119.811 395.311C119.875 382.946 119.696 370.574 119.947 358.209C120.835 315.413 120.441 272.617 120.42 229.82C120.398 189.252 119.961 148.683 119.603 108.115C119.374 81.4415 119.009 54.775 118.622 28.1017C118.457 16.8474 118.063 5.59978 117.798 -5.65458C117.77 -6.75835 117.884 -7.86212 117.935 -8.97266H118.815L118.823 -8.96588Z" fill="#07558E"/>
<path d="M325.907 -8.96582C324.976 -7.88237 325.248 -6.58222 325.248 -5.35657C325.227 50.5157 325.255 106.395 325.198 162.267C325.148 206.33 325.198 250.399 324.833 294.462C324.224 368.394 323.601 442.319 324.367 516.251C324.69 547.231 325.47 578.211 326.136 609.191C326.631 632.113 327.225 655.035 327.855 677.95C328.693 708.51 329.495 739.063 330.527 769.617C331.186 789.2 331.716 808.79 332.267 828.374C332.933 851.851 333.9 875.314 334.724 898.785C335.082 909.064 335.332 919.343 335.741 929.616C336.464 947.94 337.295 966.257 338.033 984.581C338.484 995.828 338.828 1007.08 339.272 1018.32C340.145 1040.68 341.041 1063.03 341.957 1085.38C342.58 1100.65 343.282 1115.92 343.92 1131.19C344.457 1144.1 344.915 1157.01 345.452 1169.92C346.333 1191.03 347.221 1212.13 348.153 1233.23C348.69 1245.44 349.363 1257.65 349.893 1269.87C350.81 1290.83 351.504 1311.8 352.607 1332.75C353.524 1350.24 353.975 1367.74 354.298 1385.25C354.419 1392.05 354.806 1398.85 355.05 1405.66C355.1 1407.15 355.057 1408.65 354.219 1410.17C353.947 1405.87 353.553 1401.57 353.431 1397.27C352.965 1381.02 352.736 1364.76 352.149 1348.51C351.605 1333.52 350.652 1318.54 349.993 1303.56C349.463 1291.48 349.184 1279.39 348.647 1267.31C348.009 1253.16 347.2 1239.02 346.491 1224.87C346.348 1221.96 346.326 1219.03 346.204 1216.12C345.553 1200.15 345.008 1184.19 344.185 1168.23C343.447 1153.94 342.924 1139.64 342.437 1125.33C341.965 1111.45 341.277 1097.57 340.682 1083.69C339.809 1063.28 339.028 1042.87 338.04 1022.46C336.951 999.979 336.192 977.484 335.347 954.989C334.38 929.304 333.234 903.626 332.625 877.935C332.274 863.078 331.537 848.221 331.071 833.364C330.083 801.978 329.144 770.592 328.213 739.206C327.676 721.01 327.218 702.808 326.673 684.613C325.921 659.477 325.413 634.327 324.718 609.191C323.973 581.963 323.572 554.734 322.992 527.513C322.326 496.113 322.276 464.713 322.319 433.313C322.362 402.746 322.441 372.173 322.906 341.606C323.393 309.644 323.336 277.675 323.458 245.713C323.565 218.37 323.63 191.033 323.63 163.689C323.63 138.58 323.472 113.471 323.501 88.3621C323.515 73.3901 323.902 58.4114 323.83 43.4394C323.751 26.8017 323.716 10.1707 324.002 -6.46711C324.016 -7.30001 324.102 -8.12614 324.16 -8.95905H325.921L325.907 -8.96582Z" fill="#07558E"/>
<path d="M851.989 -8.96588C852.047 -0.494639 851.681 7.96983 851.466 16.4343C851.065 32.8283 850.994 49.2223 850.715 65.6231C850.156 97.998 849.604 130.366 848.938 162.741C848.537 182.331 847.95 201.915 847.391 221.498C846.51 252.051 845.565 282.605 844.67 313.158C844.09 332.877 843.61 352.596 842.987 372.315C842.134 399.394 841.253 426.481 840.265 453.553C839.513 473.963 838.546 494.366 837.722 514.768C837.092 530.458 836.648 546.148 835.918 561.831C835.166 577.934 834.585 594.036 834.098 610.146C833.483 630.42 832.458 650.681 831.549 670.948C830.711 689.543 829.844 708.144 828.877 726.732C827.925 745.049 826.679 763.346 825.833 781.663C825.189 795.545 825.089 809.44 824.537 823.329C823.405 851.939 823.334 880.569 822.539 909.179C821.708 939.177 820.963 969.175 819.982 999.166C819.072 1026.95 818.886 1054.74 818.335 1082.52C817.819 1108.64 816.995 1134.76 815.993 1160.87C814.718 1194.22 814.875 1227.57 814.84 1260.92C814.811 1283.72 816.014 1306.49 816.938 1329.25C817.662 1346.89 818.478 1364.51 819.638 1382.13C820.147 1389.89 820.125 1397.67 820.87 1405.43C821.028 1407.06 821.307 1408.74 820.634 1410.36C819.101 1410.34 819.624 1409.23 819.588 1408.57C818.564 1387.76 817.79 1366.94 816.537 1346.14C814.073 1305.33 813.092 1264.5 813.228 1223.64C813.285 1204.87 813.801 1186.12 814.353 1167.37C815.348 1133.21 816.673 1099.06 817.074 1064.88C817.268 1048.63 817.468 1032.38 817.891 1016.14C818.707 984.743 819.76 953.357 820.576 921.97C821.221 897.254 821.543 872.531 822.224 847.815C822.797 826.708 823.649 805.608 824.415 784.501C824.759 775.061 825.132 765.621 825.619 756.189C826.414 740.655 827.373 725.134 828.147 709.6C829.171 688.927 829.98 668.239 831.069 647.566C831.943 631.05 832.322 614.527 832.867 598.005C833.604 575.652 834.586 553.305 835.474 530.952C836.047 516.515 836.512 502.078 837.228 487.648C838.417 463.778 839.226 439.902 839.978 416.018C840.874 387.828 841.934 359.645 842.535 331.448C843.022 308.811 844.039 286.187 844.756 263.55C845.221 248.828 845.508 234.1 845.973 219.379C846.675 197.154 847.298 174.937 847.671 152.706C848.322 113.938 849.411 75.1845 849.604 36.4105C849.676 22.7928 850.249 9.18195 850.628 -4.42893C850.671 -5.94576 850.951 -7.46259 851.116 -8.97266H851.996L851.989 -8.96588Z" fill="#07558E"/>
<path d="M930.415 -8.96582C931.675 3.50743 931.332 16.0281 931.46 28.5284C931.733 54.8021 930.88 81.0623 930.135 107.322C929.541 128.152 928.438 148.974 927.55 169.797C926.984 183.124 926.533 196.45 925.81 209.77C925.151 221.979 924.635 234.188 923.611 246.384C922.708 257.042 922.128 267.734 921.476 278.413C920.087 301.152 918.676 323.891 917.408 346.644C916.155 369.125 915.145 391.614 914.379 414.109C913.856 429.379 912.81 444.628 912.173 459.898C911.621 473.225 911.392 486.565 910.877 499.898C910.196 517.531 909.337 535.158 908.635 552.791C908.155 564.871 907.847 576.959 907.382 589.039C906.766 605 906.128 620.96 905.133 636.907C904.553 646.198 904.309 655.509 903.915 664.813C902.826 690.498 901.681 716.175 900.664 741.867C900.134 755.193 899.897 768.533 899.417 781.86C898.766 799.913 897.992 817.959 897.297 836.005C897.133 840.312 897.133 844.626 896.939 848.926C896.001 870.439 895.013 891.952 894.06 913.472C893.179 933.462 892.477 953.465 891.424 973.448C889.892 1002.61 890.185 1031.81 889.605 1060.98C889.161 1083.49 889.219 1106.01 888.731 1128.51C888.309 1148.1 887.027 1167.67 886.633 1187.25C885.895 1224.5 885.15 1261.74 885.236 1298.99C885.272 1314.13 884.37 1329.27 884.277 1344.42C884.191 1359.41 884.062 1374.41 885.215 1389.39C885.652 1395.07 885.981 1400.75 886.332 1406.43C886.397 1407.52 886.669 1408.64 885.824 1410.11C885.43 1406.63 884.964 1403.54 884.742 1400.43C883.353 1381.44 882.372 1362.41 882.937 1343.38C883.84 1312.81 883.668 1282.24 884.033 1251.67C884.355 1224.85 884.685 1198.03 885.731 1171.24C886.762 1144.71 887.149 1118.18 887.636 1091.65C888.022 1070.53 888.123 1049.4 888.474 1028.29C888.689 1015.37 888.767 1002.44 889.218 989.531C889.877 970.645 890.794 951.772 891.646 932.893C892.556 912.768 893.602 892.65 894.44 872.518C895.399 849.339 896.166 826.159 897.061 802.98C897.792 783.959 898.622 764.938 899.346 745.916C899.818 733.423 900.091 720.916 900.606 708.422C901.279 692.042 902.153 675.668 902.848 659.294C903.142 652.353 903.378 645.412 903.779 638.472C904.359 628.348 904.617 618.204 905.032 608.067C905.856 588.078 906.73 568.088 907.518 548.098C908.212 530.472 908.792 512.838 909.444 495.205C910.046 478.96 910.54 462.715 911.321 446.477C912.316 425.797 912.954 405.103 913.906 384.429C914.966 361.399 916.528 338.389 917.845 315.372C918.533 303.306 919.077 291.232 919.858 279.172C920.961 262.121 922.3 245.09 923.382 228.039C924.356 212.648 924.771 197.229 925.38 181.817C926.203 160.994 927.557 140.192 928.323 119.369C929.061 99.244 929.197 79.0918 929.885 58.9599C930.386 44.2249 930.379 29.4967 930.143 14.7686C930.014 6.85936 929.405 -1.04307 929.527 -8.96582H930.408L930.415 -8.96582Z" fill="#07558E"/>
<path d="M276.56 -8.96601C277.355 18.6756 278.287 46.3172 278.917 73.9655C279.733 109.814 279.962 145.67 280.084 181.518C280.206 216.135 280.321 250.751 280.27 285.367C280.22 322.34 280.17 359.313 279.762 396.286C279.561 414.623 279.253 432.961 278.953 451.298C278.451 481.174 277.907 511.044 277.141 540.913C276.095 581.631 275.751 622.348 275.364 663.073C274.935 707.812 275.536 752.552 276.023 797.285C276.346 827.304 277.047 857.315 277.721 887.327C278.494 921.645 279.397 955.957 280.285 990.275C280.836 1011.53 281.395 1032.79 282.068 1054.04C282.906 1080.58 283.307 1107.12 283.88 1133.66C284.596 1166.86 285.126 1200.07 285.62 1233.29C286.086 1264.41 286.68 1295.53 287.361 1326.65C287.783 1345.82 288.707 1364.98 289.173 1384.16C289.33 1390.81 289.474 1397.49 289.839 1404.15C289.946 1406.06 290.125 1408.01 289.574 1410.06C288.514 1408.99 288.879 1407.84 288.843 1406.82C288.457 1395.7 288.242 1384.59 287.748 1373.49C286.236 1339.19 285.785 1304.87 284.969 1270.56C284.568 1253.61 284.603 1236.65 284.288 1219.7C283.694 1187.61 283.25 1155.51 282.419 1123.42C282.082 1110.5 281.939 1097.57 281.617 1084.65C281.108 1064.23 280.471 1043.82 279.891 1023.4C279.239 1000.62 278.537 977.843 277.943 955.063C277.334 931.586 276.883 908.109 276.267 884.632C275.429 852.819 275.114 820.999 274.526 789.18C273.789 749.431 273.703 709.681 273.839 669.932C273.968 631.294 274.347 592.662 275.443 554.03C275.808 541.11 275.88 528.183 276.116 515.263C276.274 506.371 276.503 497.487 276.661 488.596C277.262 454.278 278.115 419.959 278.365 385.641C278.63 348.688 279.203 311.743 278.945 274.783C278.566 220.191 278.415 165.599 278.064 111.006C277.971 96.4133 277.642 81.8273 277.227 67.2413C276.496 41.8276 275.608 16.4206 274.791 -8.98633H276.553L276.56 -8.96601Z" fill="#07558E"/>
<path d="M1131.33 -8.96582C1131.25 -0.0747381 1131.26 8.82312 1131.07 17.7142C1130.62 38.4149 1129.93 59.1089 1129.03 79.8028C1128.19 99.3794 1128.01 118.976 1127.53 138.567C1126.92 163.154 1126.12 187.735 1125.74 212.323C1125.33 238.576 1124.65 264.829 1124.11 291.083C1123.5 319.842 1122.97 348.601 1122.31 377.359C1121.81 398.751 1121.27 420.149 1120.56 441.54C1119.86 462.79 1118.9 484.025 1118.1 505.268C1117.13 530.952 1116.17 556.637 1115.28 582.328C1114.64 601.079 1114.11 619.829 1113.53 638.58C1112.9 659.274 1112.27 679.975 1111.62 700.668C1111.1 717.476 1110.6 734.283 1110 751.09C1109.17 774.282 1108.4 797.475 1107.32 820.654C1105.96 850.083 1105.38 879.533 1104.62 908.983C1103.61 947.763 1104.42 986.551 1104.12 1025.33C1103.94 1047.99 1104.17 1070.65 1103.78 1093.3C1102.92 1143.75 1103.34 1194.21 1103.2 1244.66C1103.11 1273.29 1102.83 1301.92 1101.96 1330.53C1101.19 1355.55 1101.88 1380.57 1101.26 1405.58C1101.22 1406.94 1101.52 1408.35 1100.92 1409.71C1100.23 1408.99 1100.47 1408.14 1100.46 1407.35C1100.41 1379.69 1099.94 1352.02 1100.79 1324.36C1101.48 1301.71 1101.06 1279.06 1101.74 1256.41C1102.13 1243.35 1102.22 1230.29 1101.91 1217.24C1101.62 1204.46 1101.54 1191.68 1101.65 1178.9C1101.99 1139.7 1102.36 1100.52 1102.65 1061.32C1102.76 1045.37 1102.68 1029.41 1102.7 1013.45C1102.72 996.241 1102.86 979.021 1102.75 961.808C1102.6 940.159 1102.83 918.51 1103.36 896.868C1104.04 868.956 1104.93 841.043 1106.05 813.138C1106.66 797.861 1107.28 782.591 1107.74 767.314C1108.26 750.23 1108.94 733.152 1109.49 716.067C1110.1 697.317 1110.59 678.566 1111.19 659.816C1111.93 636.345 1112.72 612.882 1113.49 589.411C1113.91 576.633 1114.27 563.856 1114.75 551.084C1115.45 532.341 1116.25 513.597 1116.97 494.853C1117.44 482.773 1117.77 470.685 1118.29 458.605C1119.29 435.554 1119.59 412.49 1120.25 389.426C1120.98 364.284 1121.53 339.141 1121.91 313.991C1122.38 283.011 1123.57 252.038 1124.01 221.058C1124.33 198.136 1124.89 175.214 1125.52 152.299C1125.83 140.767 1125.95 129.235 1126.3 117.71C1126.98 95.3503 1127.74 72.9906 1128.65 50.6444C1129.47 30.7833 1129.44 10.9088 1129.58 -8.95905H1131.34L1131.33 -8.96582Z" fill="#07558E"/>
<path d="M984.173 -8.96582C984.115 -3.82619 984.252 1.32021 983.965 6.44629C983.034 23.3956 983.449 40.3516 983.399 57.3076C983.335 76.3561 982.432 95.3707 981.573 114.392C980.534 137.3 979.876 160.222 978.637 183.117C976.961 214.083 977.705 245.09 976.839 276.057C975.6 320.539 976.524 365.015 975.915 409.491C975.542 436.726 975.722 463.968 975.12 491.203C974.504 519.272 974.747 547.353 974.174 575.415C973.537 607.085 973.165 638.763 972.491 670.44C971.847 700.587 970.952 730.728 969.784 760.854C968.832 785.435 967.908 810.009 967.141 834.597C966.103 868.218 965.122 901.832 964.577 935.459C964.105 965.058 963.603 994.657 962.715 1024.24C961.383 1068.55 961.197 1112.87 961.512 1157.19C961.777 1194.72 961.082 1232.23 959.994 1269.72C958.812 1310.58 958.805 1351.42 958.762 1392.28C958.762 1397.69 959.299 1403.1 959.578 1408.51C959.607 1409.04 959.578 1409.58 958.926 1410.16C958.576 1405.96 958.024 1401.76 957.902 1397.56C957.2 1373.79 957.716 1350.02 957.616 1326.25C957.487 1297.47 958.69 1268.72 959.371 1239.96C960.781 1180.62 959.85 1121.27 960.302 1061.93C960.459 1040.8 961.261 1019.69 961.72 998.577C962.013 985.102 962.171 971.62 962.443 958.144C962.966 932.162 963.353 906.179 964.133 880.203C964.728 860.478 965.401 840.759 965.924 821.033C966.339 805.201 966.898 789.376 967.628 773.558C968.488 754.956 968.753 736.334 969.462 717.733C970.923 679.406 971.338 641.058 972.119 602.724C972.663 576.187 972.355 549.649 973.05 523.125C974.497 467.956 974.346 412.775 974.597 357.6C974.676 340.509 974.232 323.404 974.719 306.319C975.521 278.251 975.213 250.176 975.736 222.114C976.037 206.005 976.731 189.895 977.333 173.792C977.863 159.64 978.414 145.487 979.109 131.341C980.083 111.501 981.501 91.6734 981.659 71.7988C981.788 55.1272 981.766 38.4623 981.938 21.7907C982.031 12.7642 982.389 3.73766 982.647 -5.29562C982.683 -6.5416 982.676 -7.80788 983.285 -8.96582H984.166L984.173 -8.96582Z" fill="#07558E"/>
<path d="M789.422 -8.96582C789.966 -0.643551 789.601 7.68549 789.594 16.0145C789.579 31.86 789.529 47.7123 789.071 63.5442C788.634 78.8209 788.548 94.1044 788.197 109.381C787.653 133 787.151 156.613 786.557 180.232C786.041 200.784 785.511 221.342 784.824 241.894C784.029 265.777 783.119 289.661 782.131 313.544C781.365 332.003 780.39 350.449 779.531 368.909C778.636 388.194 777.912 407.493 776.838 426.772C775.742 446.477 775.019 466.189 774.188 485.901C773.2 509.493 771.896 533.079 770.693 556.664C769.855 573.038 769.089 589.411 768.057 605.772C766.689 627.407 765.35 649.035 764.519 670.691C764.068 682.345 763.438 693.999 762.779 705.646C761.569 727.145 760.774 748.659 760.05 770.186C759.549 785.178 758.911 800.177 758.367 815.169C756.584 863.796 756.426 912.429 756.806 961.076C757.035 990.533 757.608 1019.99 758.023 1049.45C758.245 1065.15 758.474 1080.85 758.689 1096.55C759.019 1120.45 759.005 1144.35 759.757 1168.23C760.974 1207 760.63 1245.77 760.093 1284.53C759.842 1302.72 758.532 1320.9 758.704 1339.11C758.761 1345.36 759.269 1351.6 759.327 1357.84C759.477 1374.1 759.492 1390.37 759.556 1406.63C759.556 1407.72 759.556 1408.81 759.241 1409.89C758.267 1408.14 758.575 1406.27 758.568 1404.46C758.503 1388.89 758.854 1373.32 758.317 1357.77C757.83 1343.6 757.457 1329.44 757.801 1315.26C758.224 1297.77 758.969 1280.27 759.191 1262.78C759.449 1242.9 759.606 1223.02 759.241 1203.15C758.582 1167.45 758.138 1131.74 757.45 1096.04C757.042 1074.92 757.214 1053.8 756.612 1032.69C755.975 1010.46 755.867 988.237 755.567 966.013C755.201 938.791 754.879 911.569 755.502 884.348C755.753 873.513 755.853 862.672 756.075 851.837C756.362 838.084 756.577 824.324 757.042 810.578C757.823 787.392 758.732 764.206 759.656 741.027C760.172 728.121 760.809 715.214 761.425 702.314C762.285 684.275 763.08 666.235 764.09 648.202C765.307 626.425 766.775 604.661 768.036 582.89C768.58 573.458 768.824 564.011 769.318 554.578C769.998 541.679 770.858 528.786 771.517 515.886C772.039 505.62 772.355 495.341 772.813 485.068C773.558 468.417 774.353 451.766 775.112 435.107C775.542 425.668 775.914 416.228 776.358 406.789C777.39 384.585 778.457 362.388 779.488 340.184C779.932 330.609 780.326 321.027 780.727 311.445C781.515 292.43 782.36 273.416 783.055 254.401C783.57 240.377 783.929 226.347 784.272 212.316C784.917 185.927 785.304 159.525 786.199 133.143C786.679 118.97 786.657 104.803 787.03 90.6306C787.732 64.3907 788.426 38.1508 788.476 11.8974C788.491 4.94977 788.519 -1.99787 788.541 -8.95228H789.422V-8.96582Z" fill="#07558E"/>
<path d="M2046.02 428.153C2037.35 428.478 2028.74 427.442 2020.11 426.981C1994.31 425.607 1968.5 424.97 1942.67 424.584C1923.74 424.3 1904.82 423.298 1885.9 422.742C1868 422.214 1850.1 422.031 1832.2 421.381C1802.13 420.291 1772.02 420.366 1741.98 418.693C1714.58 417.169 1687.14 416.648 1659.74 415.449C1633.79 414.319 1607.83 413.269 1581.87 412.443C1556.79 411.637 1531.7 411.061 1506.61 410.344C1478.01 409.531 1449.39 408.84 1420.79 407.784C1402.46 407.107 1384.17 405.583 1365.84 404.94C1340.32 404.046 1314.83 402.529 1289.32 401.52C1271.58 400.816 1253.82 400.477 1236.09 399.577C1196.08 397.539 1156.03 396.53 1115.99 395.358C1091.35 394.64 1066.76 392.873 1042.14 391.627C1018.84 390.449 995.568 388.857 972.277 387.503C956.313 386.575 940.306 386.338 924.334 385.58C906.171 384.72 888.015 383.609 869.852 382.628C854.912 381.815 839.965 381.057 825.025 380.21C804.069 379.018 783.077 378.957 762.092 378.585C743.607 378.26 725.114 377.867 706.629 377.705C671.556 377.4 636.505 376.039 601.418 376.228C587.488 376.303 573.551 375.396 559.613 375.07C539.652 374.596 519.713 375.578 499.76 375.707C474.521 375.876 449.289 376.357 424.05 376.526C393.095 376.736 362.148 376.804 331.193 376.845C312.271 376.872 293.356 376.52 274.434 376.784C253.893 377.075 233.352 376.513 212.811 376.14C195.35 375.822 177.882 375.693 160.428 375.111C136.378 374.312 112.328 373.364 88.2989 372.105C71.1601 371.204 54.0571 369.586 36.9325 368.461C24.1984 367.629 11.4284 367.209 -1.30574 366.376C-11.2467 365.726 -21.159 364.696 -30.9854 363.078V362.245C-24.2172 362.286 -17.5636 363.505 -10.8528 364.141C1.42301 365.299 13.7346 365.915 26.0534 366.41C41.4518 367.033 56.8001 368.238 72.1556 369.43C82.5334 370.236 92.9542 370.622 103.368 371.041C126.537 371.983 149.699 372.958 172.876 373.676C188.124 374.143 203.393 374.062 218.641 374.441C247.848 375.172 277.055 374.745 306.262 374.806C345.152 374.881 384.049 374.921 422.939 374.752C447.734 374.644 472.53 374.122 497.325 373.784C520.508 373.472 543.692 372.423 566.868 373.242C602.643 374.502 638.453 373.899 674.228 375.131C694.618 375.829 715.023 375.382 735.413 375.836C761.813 376.425 788.234 376.553 814.619 377.583C841.734 378.639 868.807 380.596 895.901 382.052C909.817 382.797 923.718 383.65 937.663 383.975C956.299 384.409 974.899 385.472 993.491 386.792C1012.23 388.126 1030.99 388.945 1049.75 389.88C1062.2 390.503 1074.64 391.464 1087.09 392.135C1106.87 393.205 1126.68 393.469 1146.47 394.099C1170.53 394.864 1194.59 395.46 1218.63 396.591C1238.26 397.518 1257.89 398.514 1277.55 399.116C1296.75 399.705 1315.94 400.897 1335.14 401.764C1353.31 402.583 1371.51 403.078 1389.67 404.148C1419.7 405.929 1449.76 406.795 1479.83 407.506C1500.67 408.001 1521.49 408.644 1542.33 409.213C1573.71 410.073 1605.1 411.082 1636.46 412.402C1659.03 413.35 1681.61 414.264 1704.19 414.935C1720.17 415.409 1736.13 416.722 1752.1 417.257C1776.45 418.07 1800.81 418.354 1825.16 419.208C1847.89 420.007 1870.64 420.23 1893.38 420.88C1913.91 421.469 1934.44 422.472 1954.97 422.83C1971.26 423.115 1987.55 423.413 2003.82 424.117C2017.89 424.726 2031.95 425.675 2046.01 426.467V428.133L2046.02 428.153Z" fill="#07558E"/>
<path d="M2046.02 704.271C2041.33 704.779 2036.63 704.365 2031.97 704.128C2017.9 703.411 2003.83 702.598 1989.79 701.508C1963.16 699.436 1936.49 698.332 1909.78 697.506C1875.44 696.443 1841.09 696.233 1806.76 695.271C1794.88 694.939 1782.97 694.973 1771.08 695.122C1748.45 695.407 1725.87 694.499 1703.3 693.165C1683.22 691.98 1663.14 690.863 1643.07 689.739C1626.66 688.818 1610.22 688.459 1593.82 687.308C1572.6 685.825 1551.4 684.118 1530.14 683.198C1511.22 682.378 1492.34 680.983 1473.46 679.514C1463.23 678.715 1452.97 678.187 1442.72 677.536C1433.64 676.961 1424.55 676.494 1415.49 675.776C1403.63 674.848 1391.73 674.997 1379.86 674.286C1368.88 673.623 1357.87 673.291 1346.9 672.404C1328.33 670.9 1309.71 670.047 1291.11 668.876C1263.57 667.135 1235.99 666.418 1208.42 665.422C1185.98 664.616 1163.53 663.817 1141.12 662.416C1110.64 660.513 1080.1 660.296 1049.61 658.955C1032.01 658.183 1014.42 657.337 996.814 656.822C976.13 656.22 955.439 655.685 934.755 655.217C924.191 654.98 913.613 655.129 903.049 654.798C881.333 654.12 859.646 652.874 837.917 652.529C802.98 651.974 768.051 651.405 733.121 650.68C712.287 650.247 691.438 649.759 670.625 648.818C653.186 648.033 635.782 646.516 618.328 646.028C582.675 645.026 547.029 643.685 511.362 642.995C483.466 642.46 455.563 643.029 427.674 642.419C389.507 641.586 351.333 641.607 313.166 641.884C297.173 641.999 281.181 642.812 265.173 642.487C242.871 642.033 220.568 641.417 198.265 640.977C162.14 640.266 126.036 641.214 89.9533 642.649C69.8566 643.448 49.7813 644.586 29.663 644.6C13.9351 644.613 -1.72114 645.663 -17.3488 647.125C-21.8824 647.552 -26.4303 647.714 -30.9854 647.545V646.712C-9.49198 645.114 11.9584 642.873 33.5664 642.9C50.4474 642.92 67.314 642.243 84.1664 641.173C100.138 640.157 116.145 640.239 132.131 639.663C167.497 638.39 202.856 639.196 238.222 639.758C254.208 640.008 270.194 641.058 286.187 640.618C301.736 640.191 317.292 639.589 332.841 639.771C363.072 640.117 393.303 639.602 423.541 640.313C441.575 640.74 459.624 640.469 477.665 640.604C494.689 640.733 511.713 641.024 528.737 641.485C542.231 641.857 555.731 641.965 569.225 642.487C584.036 643.062 598.847 643.624 613.665 643.963C636.419 644.478 659.073 646.611 681.798 647.43C701.157 648.128 720.53 648.486 739.904 648.866C769.834 649.448 799.764 650.044 829.695 650.41C858.909 650.768 888.066 652.651 917.273 653.247C929.749 653.504 942.225 653.436 954.701 653.761C979.196 654.398 1003.71 654.872 1028.18 656.03C1054.28 657.269 1080.4 657.804 1106.49 658.705C1127.02 659.409 1147.54 660.52 1168.05 661.63C1199.12 663.316 1230.23 663.892 1261.3 665.3C1283.88 666.323 1306.43 667.691 1328.98 669.16C1352.99 670.724 1376.98 672.539 1401.06 673.135C1423.22 673.683 1445.3 675.593 1467.39 677.09C1493.01 678.83 1518.62 680.563 1544.27 681.884C1561.41 682.764 1578.5 684.41 1595.62 685.419C1615.25 686.577 1634.9 687.348 1654.54 688.398C1673.73 689.421 1692.92 690.443 1712.1 691.709C1737.76 693.402 1763.43 693.368 1789.12 693.159C1807.47 693.01 1825.81 693.863 1844.15 694.086C1866.47 694.357 1888.76 695.129 1911.07 695.569C1935.3 696.05 1959.46 697.228 1983.61 699.043C2003.65 700.546 2023.69 702.124 2043.8 702.618C2044.54 702.639 2045.27 702.605 2046.01 702.605V704.271H2046.02Z" fill="#07558E"/>
<path d="M2046.02 357.247C2035.33 356.53 2024.6 356.712 2013.9 356.299C1997.91 355.683 1981.94 354.708 1965.96 354.2C1948.2 353.631 1930.43 353.679 1912.69 352.981C1894.21 352.257 1875.77 350.76 1857.3 349.968C1831.79 348.871 1806.3 347.368 1780.8 346.095C1755.16 344.822 1729.51 343.467 1703.85 342.452C1690.65 341.93 1677.43 342.215 1664.22 341.869C1647.94 341.449 1631.66 340.826 1615.4 339.946C1600.6 339.14 1585.77 338.802 1570.97 338.009C1560.28 337.434 1549.62 336.438 1538.94 335.66C1525.48 334.678 1512.01 333.77 1498.55 332.755C1467.68 330.425 1436.78 328.604 1405.82 327.676C1377.06 326.816 1348.29 326.105 1319.58 324.541C1291.13 322.99 1262.66 323.071 1234.21 321.934C1206.19 320.81 1178.16 320.816 1150.13 320.288C1123.72 319.787 1097.31 320.214 1070.91 319.57C1053.01 319.13 1035.12 318.203 1017.21 317.911C996.227 317.566 975.271 316.442 954.315 315.386C929.548 314.133 904.796 312.778 880.087 310.693C862.254 309.19 844.334 308.851 826.45 308.106C807.099 307.3 787.747 306.413 768.387 305.777C751.227 305.208 734.074 304.449 716.935 303.447C699.359 302.418 681.762 301.788 664.172 301.023C643.939 300.143 623.721 298.883 603.488 298.22C579.739 297.441 555.996 296.188 532.218 296.533C521.067 296.696 509.923 297.312 498.771 297.495C482.485 297.766 466.191 297.63 449.912 298.037C434.95 298.409 419.996 299.174 405.049 299.94C387.158 300.854 369.238 300.563 351.34 301.158C330.807 301.842 310.294 302.851 289.768 303.772C271.884 304.578 254.015 305.655 236.131 306.427C205.9 307.734 175.669 306.684 145.445 306.095C132.546 305.844 119.669 304.612 106.791 303.759C90.82 302.702 74.8127 302.668 58.8198 302.249C42.8269 301.829 26.8197 301.362 10.8268 302.249C0.706801 302.804 -9.40604 303.271 -19.5404 302.784C-23.3506 302.601 -27.1536 302.391 -30.9639 302.194V301.362C-27.4545 300.596 -23.9379 301.307 -20.45 301.47C-12.2207 301.849 -3.99152 301.829 4.18757 301.28C28.4025 299.648 52.6103 300.779 76.8181 301.098C94.1503 301.321 111.418 302.343 128.686 303.637C145.23 304.876 161.818 304.822 178.405 304.93C199.232 305.072 220.067 305.519 240.887 304.504C258.763 303.63 276.618 302.296 294.509 301.612C321.195 300.59 347.852 298.897 374.581 298.822C394.692 298.768 414.768 297.637 434.843 296.561C446.696 295.924 458.599 295.809 470.481 295.802C491.616 295.789 512.73 295.139 533.858 294.692C548.827 294.38 563.789 295.003 578.75 295.423C602.514 296.093 626.249 297.136 649.991 298.206C667.725 299.005 685.472 299.56 703.184 300.664C734.224 302.601 765.301 303.617 796.37 304.829C821.731 305.817 847.099 306.874 872.445 308.174C885.187 308.824 897.885 310.185 910.619 311.038C922.329 311.824 934.053 312.399 945.778 312.982C962.924 313.835 980.062 314.912 997.223 315.365C1041.67 316.55 1086.1 318.44 1130.59 318.162C1157.14 317.993 1183.72 318.561 1210.26 319.225C1230.21 319.719 1250.15 320.681 1270.11 320.749C1294.79 320.83 1319.36 322.963 1344 323.694C1358.38 324.128 1372.75 324.48 1387.12 324.988C1407.94 325.726 1428.77 326.437 1449.58 327.432C1462.33 328.042 1475.05 329.125 1487.77 330.032C1506.06 331.339 1524.37 332.524 1542.63 334.062C1558.41 335.389 1574.21 336.432 1590.04 337.068C1629.18 338.646 1668.32 340.285 1707.51 340.698C1723.49 340.867 1739.46 342.133 1755.43 342.939C1772.87 343.819 1790.31 344.618 1807.73 345.709C1825.31 346.806 1842.91 347.361 1860.48 348.228C1876.45 349.02 1892.39 350.428 1908.36 351.133C1922.28 351.749 1936.24 351.674 1950.17 352.06C1962.78 352.406 1975.4 352.798 1988 353.462C2006.18 354.424 2024.37 354.742 2042.56 355.243C2043.73 355.277 2044.92 355.081 2046.04 355.582V357.247H2046.02Z" fill="#07558E"/>
<path d="M2046.02 836.073C2040.16 836.547 2034.29 836.093 2028.43 835.992C2005.98 835.585 1983.53 836.256 1961.08 836.35C1945.37 836.418 1929.67 836.134 1913.98 835.497C1898.73 834.881 1883.46 834.678 1868.2 834.035C1842.68 832.958 1817.12 833.235 1791.6 832.45C1766.66 831.678 1741.73 830.513 1716.8 829.538C1693.62 828.631 1670.42 828.59 1647.24 828.157C1624.2 827.723 1601.15 827.466 1578.12 826.816C1562.27 826.369 1546.45 825.279 1530.62 824.642C1513.02 823.931 1495.41 823.505 1477.81 822.78C1464.61 822.238 1451.43 821.351 1438.24 820.755C1419.33 819.902 1400.41 819.13 1381.49 818.385C1355.53 817.356 1329.56 816.32 1303.6 815.413C1287.17 814.837 1270.71 814.864 1254.3 813.957C1215.45 811.81 1176.54 811.478 1137.68 809.738C1119.2 808.912 1100.74 808.018 1082.29 806.65C1055.95 804.7 1029.6 802.967 1003.24 801.267C983.17 799.967 963.045 799.811 942.948 799.073C911.843 797.922 880.724 797.867 849.605 797.333C838.747 797.143 827.882 797.468 817.018 797.59C801.891 797.759 786.779 797.258 771.682 796.527C756.119 795.775 740.555 796.053 724.992 796.1C690.786 796.215 656.587 796.364 622.381 796.588C600.952 796.73 579.523 797.224 558.102 797.217C527.999 797.217 497.919 798.375 467.831 798.294C441.417 798.226 414.996 798.714 388.583 798.294C362.749 797.888 336.937 796.974 311.204 794.529C295.139 793.005 278.996 792.261 262.853 791.99C244.346 791.685 225.939 789.864 207.468 789.017C193.101 788.36 178.705 788.143 164.345 787.338C139.128 785.922 113.846 786.789 88.6424 785.137C80.8858 784.629 73.1293 784.067 65.3871 783.383C52.0585 782.205 38.7084 782.381 25.3512 782.476C6.55789 782.604 -12.2211 782.191 -30.9785 781.013V780.18C-24.8191 779.733 -18.6669 780.16 -12.529 780.39C7.13802 781.135 26.8051 780.783 46.4721 780.851C56.9001 780.884 67.2922 781.683 77.6629 782.631C94.6299 784.189 111.654 784.236 128.678 784.568C152.156 785.022 175.626 785.868 199.089 786.843C215.354 787.521 231.597 788.794 247.862 789.626C257.975 790.148 268.102 790.392 278.23 790.683C293.205 791.109 308.11 792.477 323.021 793.683C345.56 795.504 368.149 796.303 390.753 796.479C421.256 796.716 451.781 796.913 482.277 796.283C519.992 795.504 557.708 795.423 595.416 794.922C630.625 794.455 665.841 794.475 701.057 794.326C720.287 794.245 739.517 794.062 758.74 794.279C773.408 794.448 788.069 795.423 802.736 795.599C818.292 795.789 833.856 795.172 849.404 795.423C879.779 795.904 910.16 795.978 940.527 797.035C956.95 797.603 973.394 797.895 989.81 798.667C1004.61 799.357 1019.38 800.515 1034.16 801.49C1048.51 802.438 1062.87 803.339 1077.2 804.422C1091.53 805.506 1105.86 806.623 1120.23 807.212C1134.75 807.815 1149.27 808.411 1163.78 808.892C1179.92 809.42 1196.06 809.697 1212.2 810.287C1226.86 810.822 1241.51 811.715 1256.17 812.284C1269.96 812.819 1283.76 813.097 1297.54 813.571C1318.23 814.275 1338.9 815.033 1359.58 815.792C1376.59 816.422 1393.6 817.038 1410.61 817.756C1426.45 818.419 1442.27 819.117 1458.09 820.044C1474.94 821.04 1491.8 821.724 1508.68 822.11C1524.67 822.475 1540.64 823.207 1556.61 824.155C1572.72 825.11 1588.88 825.211 1605.04 825.313C1622.21 825.421 1639.37 825.895 1656.54 826.207C1672.09 826.491 1687.65 826.681 1703.19 827.073C1716.84 827.419 1730.48 828.048 1744.11 828.441C1768.46 829.139 1792.77 831.116 1817.15 830.94C1844.17 830.75 1871.15 832.132 1898.14 832.958C1922.49 833.709 1946.83 834.657 1971.19 834.326C1986.89 834.109 2002.58 833.5 2018.29 833.574C2027.54 833.615 2036.78 833.872 2046.01 834.4V836.066L2046.02 836.073Z" fill="#07558E"/>
<path d="M-30.9785 568.297C-28.701 567.566 -26.3447 567.837 -24.0098 567.756C-7.12883 567.187 9.73785 567.844 26.6045 568.27C51.8437 568.914 77.0899 568.291 102.336 568.311C125.09 568.324 147.823 568.887 170.569 569.564C196.969 570.349 223.39 570.342 249.789 571.013C270.473 571.541 291.164 572.083 311.82 573.403C325.872 574.304 339.902 575.577 353.954 576.362C377.832 577.703 401.718 578.915 425.646 579.261C447.505 579.572 469.364 580.567 491.222 580.696C528.802 580.913 566.388 580.994 603.975 580.716C628.039 580.534 652.111 580.879 676.176 581.062C699.065 581.238 721.948 581.4 744.838 581.035C769.784 580.642 794.744 580.886 819.703 580.838C848.631 580.784 877.501 582.416 906.4 583.242C939.403 584.184 972.42 584.888 1005.42 585.924C1051.03 587.359 1096.65 588.7 1142.25 590.596C1177.3 592.059 1212.31 594.111 1247.34 595.797C1275.63 597.158 1303.92 598.424 1332.18 600.178C1353.41 601.498 1374.64 602.67 1395.91 603.313C1427.58 604.275 1459.25 605.582 1490.95 606.096C1525.88 606.665 1560.79 607.789 1595.71 608.304C1621.99 608.69 1648.27 608.493 1674.55 608.582C1698.92 608.663 1723.28 608.832 1747.64 608.879C1786.83 608.954 1826 608.934 1865.19 609.022C1883.23 609.062 1901.26 609.936 1919.3 610.735C1941.73 611.73 1964.08 613.565 1986.44 615.468C2005 617.046 2023.57 618.556 2042.2 619.287C2043.5 619.342 2044.87 619.24 2046.02 620.025V621.691C2030.78 620.987 2015.56 619.931 2000.35 618.705C1982.22 617.242 1964.11 615.617 1945.96 614.364C1933.23 613.484 1920.47 613.139 1907.73 612.489C1887.21 611.446 1866.67 611.04 1846.12 610.972C1813.96 610.864 1781.81 610.965 1749.66 610.803C1714.14 610.627 1678.61 610.877 1643.1 610.254C1622.27 609.888 1601.42 610.356 1580.59 609.909C1546.99 609.184 1513.39 608.663 1479.78 607.722C1457.92 607.112 1436.05 606.631 1414.2 605.765C1389.86 604.796 1365.5 604.234 1341.19 602.636C1317.17 601.052 1293.12 600.043 1269.09 598.803C1238.02 597.205 1206.95 595.655 1175.89 594.05C1137.19 592.052 1098.47 590.576 1059.75 589.411C1036.28 588.707 1012.81 587.921 989.33 587.393C963.654 586.811 937.985 585.964 912.323 585.098C858.479 583.283 804.627 581.8 750.74 582.68C728.58 583.039 706.421 583.127 684.254 582.917C666.342 582.748 648.437 582.531 630.525 582.491C607.334 582.443 584.143 582.701 560.952 582.579C532.913 582.43 504.866 582.944 476.827 582.125C446.015 581.218 415.175 581.184 384.386 579.694C364.454 578.732 344.529 577.703 324.647 576.031C305.639 574.432 286.552 573.938 267.479 573.315C244.152 572.55 220.818 572.198 197.477 572.056C171.493 571.9 145.566 570.017 119.575 570.112C97.7095 570.187 75.8366 570.295 53.9708 570.336C39.8758 570.363 25.7952 570.031 11.7146 569.503C-0.174456 569.056 -12.0635 569.124 -23.9525 569.333C-26.2945 569.374 -28.6437 569.53 -30.9714 569.151V568.318L-30.9785 568.297Z" fill="#07558E"/>
<path d="M-30.9785 715.112C-26.2516 714.665 -21.6249 715.674 -16.9552 715.999C-3.59077 716.94 9.74501 716.182 23.1023 715.985C47.7684 715.613 72.3988 714.394 97.022 713.189C115.357 712.288 133.706 712.613 152.041 712.315C165.541 712.092 179.042 711.543 192.55 711.862C210.304 712.275 228.059 712.769 245.814 713.324C278.086 714.347 310.351 715.511 342.645 715.789C357.313 715.918 371.981 716.805 386.649 717.082C403.96 717.414 421.292 717.211 438.603 717.678C473.668 718.626 508.741 718.931 543.813 719.547C566.266 719.94 588.712 720.319 611.165 720.583C630.102 720.807 649.038 720.753 667.975 721.017C721.261 721.755 774.546 720.509 827.839 720.956C852.635 721.166 877.43 721.098 902.225 721.274C923.654 721.423 945.097 721.43 966.511 722.066C986.751 722.662 1006.98 723.705 1027.23 723.983C1067.15 724.531 1107.05 725.831 1146.96 726.732C1166.62 727.172 1186.29 727.612 1205.92 728.689C1225.11 729.739 1244.29 730.985 1263.51 731.601C1284.19 732.271 1304.87 733.043 1325.55 733.7C1343 734.248 1360.48 734.418 1377.91 735.251C1408.4 736.713 1438.92 737.573 1469.36 739.984C1485.73 741.284 1502.19 741.623 1518.58 742.828C1536.43 744.142 1554.32 745.015 1572.19 745.916C1590.8 746.857 1609.42 747.595 1628.03 748.577C1644.88 749.464 1661.71 750.548 1678.56 751.57C1696.43 752.654 1714.34 752.958 1732.24 753.378C1752.63 753.852 1773.02 754.644 1793.42 755.037C1818.51 755.518 1843.61 755.633 1868.71 756.087C1886.03 756.398 1903.33 757.062 1920.65 757.482C1935.6 757.847 1950.56 757.969 1965.52 758.03C1978.58 758.084 1991.63 758.579 2004.69 759.073C2018.48 759.594 2032.25 760.346 2046.03 760.996V762.662C2034.57 762.811 2023.15 761.856 2011.72 761.409C1995.59 760.773 1979.47 759.947 1963.31 760.062C1933.96 760.278 1904.64 758.558 1875.29 758.139C1856.36 757.868 1837.44 757.387 1818.51 757.17C1793.56 756.886 1768.62 756.236 1743.68 755.322C1729.31 754.793 1714.92 754.638 1700.54 754.326C1687.33 754.042 1674.17 752.952 1660.98 752.261C1648.38 751.597 1635.78 750.859 1623.17 750.195C1609.54 749.478 1595.91 748.794 1582.28 748.11C1568.22 747.406 1554.14 746.81 1540.08 746.017C1515.61 744.643 1491.14 743.37 1466.7 741.663C1420.43 738.433 1374.1 736.727 1327.72 735.677C1308.79 735.251 1289.89 734.16 1270.96 733.673C1249.97 733.131 1229.03 731.885 1208.08 730.754C1169.97 728.696 1131.81 728.283 1093.67 727.335C1066.23 726.651 1038.79 726.204 1011.35 725.493C979.955 724.68 948.585 723.15 917.165 723.258C894.418 723.333 871.664 723.123 848.917 722.899C824.108 722.656 799.306 722.581 774.504 722.75C748.971 722.926 723.438 723.258 697.912 723.245C678.682 723.231 659.459 722.73 640.229 722.534C624.086 722.364 607.942 722.432 591.806 722.202C557.758 721.714 523.709 720.956 489.661 720.597C459.716 720.279 429.8 718.748 399.849 719.046C376.794 719.276 353.796 717.435 330.749 717.36C296.536 717.259 262.38 715.417 228.202 714.34C208.686 713.724 189.176 713.243 169.645 713.548C147.486 713.893 125.312 713.866 103.16 714.421C86.4364 714.841 69.7417 716.222 53.0182 716.656C31.6036 717.211 10.1962 718.301 -11.2399 717.611C-17.8361 717.394 -24.4252 716.9 -30.957 715.945V715.112H-30.9785Z" fill="#07558E"/>
<path d="M2046.02 489.883C2008.76 488.502 1971.49 488.373 1934.21 487.709C1898.99 487.086 1863.78 486.172 1828.55 485.766C1805.37 485.495 1782.17 485.63 1759 484.743C1737.3 483.91 1715.59 483.457 1693.92 481.757C1680.03 480.667 1666.08 480.301 1652.16 479.577C1634.58 478.656 1616.99 477.613 1599.41 476.787C1586.51 476.184 1573.6 475.757 1560.7 475.399C1538.83 474.796 1517 473.563 1495.16 472.615C1480.65 471.992 1466.11 471.81 1451.59 471.309C1435.46 470.747 1419.33 470.036 1403.2 469.413C1390.88 468.939 1378.55 468.559 1366.23 468.018C1344.83 467.07 1323.44 465.979 1302.04 465.025C1285.03 464.266 1268.03 463.406 1251.01 462.973C1217.56 462.12 1184.1 461.043 1150.63 460.948C1103.81 460.813 1057 459.722 1010.19 459.16C986.988 458.883 963.79 459.289 940.592 458.944C908.599 458.463 876.599 458.652 844.606 457.806C823.041 457.237 801.462 457.068 779.904 456.31C751.442 455.314 722.966 456.587 694.511 455.531C679.556 454.976 664.602 454.197 649.648 453.621C633.963 453.025 618.242 452.93 602.578 451.955C558.89 449.226 515.165 448.8 471.405 449.084C449.969 449.22 428.533 448.82 407.104 449.199C384.357 449.606 361.632 450.865 338.893 451.346C314.09 451.874 289.302 453.073 264.493 452.748C249.374 452.545 234.262 451.928 219.143 451.942C187.143 451.962 155.142 451.102 123.142 451.637C103.611 451.969 84.1163 451.129 64.6139 450.188C47.0167 449.335 29.4768 447.947 12.03 445.624C-2.24397 443.721 -16.5753 442.902 -30.9854 443.179V442.347C-22.1832 441.656 -13.3881 442.143 -4.60745 442.658C8.43467 443.423 21.3336 445.495 34.3184 446.775C45.2835 447.852 56.2845 448.272 67.2711 448.834C82.6552 449.626 98.0608 450.486 113.474 450.168C145.037 449.518 176.593 450.323 208.149 450.249C230.316 450.195 252.468 451.082 274.62 451.048C287.97 451.028 301.327 450.432 314.678 450.141C333.02 449.741 351.383 449.66 369.704 448.651C409.46 446.464 449.26 447.703 489.038 447.269C516.197 446.972 543.348 447.52 570.492 448.421C586.041 448.935 601.554 450.161 617.103 450.777C647.012 451.969 676.921 453.181 706.844 453.953C725.036 454.42 743.256 453.912 761.462 454.149C784.495 454.454 807.535 454.867 830.561 455.612C858.88 456.533 887.213 456.364 915.532 456.933C949.595 457.616 983.658 457.075 1017.71 457.603C1054.7 458.172 1091.68 459.282 1128.67 459.215C1164.79 459.154 1200.86 460.616 1236.97 460.874C1255.45 461.002 1273.92 462.268 1292.39 463.04C1307.05 463.65 1321.72 464.259 1336.38 464.916C1352.36 465.627 1368.33 466.46 1384.31 467.117C1397.07 467.638 1409.85 467.787 1422.61 468.41C1446.94 469.595 1471.32 469.595 1495.65 470.909C1529.65 472.744 1563.69 473.421 1597.71 474.972C1617.49 475.873 1637.27 477.166 1657.06 477.965C1679.94 478.893 1702.75 480.884 1725.63 481.73C1740.44 482.279 1755.26 482.725 1770.07 483.287C1793.54 484.175 1817.03 483.626 1840.5 484.059C1868.23 484.567 1895.96 485.136 1923.7 485.651C1949.97 486.138 1976.24 486.457 2002.51 486.646C2014.98 486.734 2027.45 487.357 2039.92 487.757C2041.98 487.824 2044.02 487.933 2046.03 487.391V489.897L2046.02 489.883Z" fill="#07558E"/>
<path d="M2046.02 122.836C2038.89 123.865 2031.69 123.533 2024.52 123.804C1987.24 125.226 1949.98 123.641 1912.71 123.106C1889.81 122.781 1866.95 121.373 1844.05 121.014C1806.48 120.425 1768.92 119.362 1731.34 119.348C1709.04 119.348 1686.74 118.583 1664.43 119.016C1639.19 119.511 1613.95 119.037 1588.71 118.834C1566.84 118.658 1544.97 118.746 1523.1 118.522C1472.47 118.007 1421.82 118.481 1371.19 117.344C1348.01 116.822 1324.84 115.793 1301.65 115.475C1259.09 114.886 1216.52 114.683 1173.95 114.249C1154.14 114.046 1134.33 113.592 1114.52 113.45C1100.13 113.349 1085.75 113.694 1071.36 113.281C1050.09 112.665 1028.81 112.258 1007.54 111.419C971.762 110.003 936.023 107.782 900.198 107.322C872.61 106.97 845.014 106.218 817.44 105.216C797.2 104.478 776.982 103.205 756.728 102.846C728.402 102.345 700.076 101.702 671.742 101.485C652.369 101.336 632.989 101.512 613.629 100.842C585.755 99.88 557.851 100.225 529.984 99.2637C500.197 98.2412 470.41 97.8282 440.608 97.6182C416.68 97.449 392.766 98.099 368.851 98.5053C340.525 98.9861 312.192 98.6949 283.859 98.7491C251.866 98.8101 219.873 99.0064 187.88 98.9116C168.356 98.8507 148.833 97.9027 129.316 98.1532C92.3168 98.634 55.3247 98.634 18.3255 98.6814C3.05596 98.7017 -12.2136 98.4918 -27.4831 98.4038C-28.6505 98.4038 -29.8179 98.5527 -30.9854 98.634V96.9682C3.51433 97.6792 38.014 97.4625 72.5137 97.3C102.609 97.1578 132.697 96.2639 162.792 97.1172C188.038 97.8349 213.284 97.2187 238.538 97.3406C265.976 97.4761 293.413 96.8395 320.844 97.2052C351.834 97.6115 382.775 96.1759 413.743 96.0202C452.497 95.8306 491.237 96.2301 529.976 97.5234C553.296 98.3022 576.652 98.2886 599.986 98.7085C614.367 98.9658 628.749 99.4533 643.13 99.6633C656.33 99.8529 669.529 99.6768 682.729 99.8664C710.912 100.266 739.102 100.577 767.27 101.349C790.303 101.979 813.308 103.388 836.341 104.146C856.732 104.823 877.143 105.013 897.541 105.555C924.828 106.279 952.123 106.692 979.375 108.432C1003.98 110.003 1028.65 110.423 1053.29 111.27C1083.68 112.313 1114.06 111.317 1144.43 112.048C1174.08 112.766 1203.73 112.367 1233.37 113.071C1256.72 113.626 1280.06 113.403 1303.4 113.775C1323.94 114.107 1344.47 115.177 1365.01 115.604C1385.99 116.044 1406.99 116.05 1427.98 116.342C1445.28 116.579 1462.59 116.504 1479.9 116.47C1523.35 116.389 1566.79 116.999 1610.25 117.236C1644.29 117.418 1678.33 116.613 1712.37 117.154C1737.76 117.561 1763.16 117.405 1788.55 117.994C1821.12 118.746 1853.71 118.908 1886.26 120.418C1910.31 121.529 1934.38 121.725 1958.44 122.233C1979.14 122.666 1999.83 122.971 2020.53 122.362C2027.43 122.158 2034.32 121.921 2041.22 121.725C2042.82 121.678 2044.45 121.454 2046.02 121.989V122.822V122.836Z" fill="#07558E"/>
<path d="M-30.9785 43.5882C-25.4422 44.4279 -19.8487 44.0758 -14.2837 44.306C1.40836 44.9696 17.1076 45.4639 32.7925 46.2021C48.9287 46.9672 65.0863 46.7302 81.2225 47.1298C100.897 47.6105 120.571 47.5902 140.238 47.2855C167.096 46.8724 193.961 46.7167 220.811 45.6806C259.243 44.1909 297.696 43.4596 336.156 43.5205C360.078 43.5544 383.999 43.7981 407.92 44.069C441.238 44.4414 474.563 44.367 507.881 44.1299C534.295 43.9403 560.709 43.6289 587.115 43.8388C623.076 44.1232 659.037 44.3737 694.997 44.543C727.721 44.6988 760.437 44.4076 793.161 44.3128C827.066 44.2112 860.957 43.4528 894.855 43.033C920.975 42.7079 947.095 42.5928 973.215 42.1933C993.011 41.8953 1012.81 42.3287 1032.61 42.2271C1052.71 42.1256 1072.8 42.0646 1092.89 42.2068C1132.95 42.498 1173.02 42.4641 1213.07 43.0465C1236.56 43.3851 1260.04 43.4663 1283.53 43.6627C1309.51 43.8794 1335.49 44.1841 1361.47 44.2857C1400.66 44.4347 1439.85 44.3602 1479.04 44.543C1499.87 44.6378 1520.71 44.868 1541.53 45.3895C1560.61 45.8702 1579.66 46.9469 1598.73 47.5564C1621.91 48.3012 1645.06 49.466 1668.23 50.4546C1688.46 51.3214 1708.71 52.0324 1728.94 52.9398C1751.66 53.9555 1774.37 55.0525 1797.08 56.1969C1828.58 57.7815 1860.08 59.5353 1891.59 61.0453C1908 61.8309 1924.44 62.2642 1940.87 62.833C1966.54 63.7269 1992.21 64.316 2017.9 64.5869C2027.28 64.6885 2036.65 65.0406 2046.04 65.2776V66.9434C2016.1 66.3678 1986.16 65.9141 1956.23 65.1625C1937.3 64.6885 1918.38 63.8488 1899.46 63.0497C1879.37 62.2033 1859.29 61.235 1839.21 60.2598C1820.15 59.3321 1801.1 58.2961 1782.05 57.3548C1758.74 56.2104 1735.44 55.066 1712.13 54.0232C1694.24 53.2242 1676.34 52.7231 1658.45 51.8495C1635.73 50.7458 1613 49.8316 1590.26 49.1071C1567.23 48.369 1544.22 47.1365 1521.17 46.7979C1473.02 46.0937 1424.86 46.175 1376.71 46.0124C1325.19 45.8432 1273.66 45.3624 1222.14 44.8477C1182.36 44.4482 1142.59 44.0351 1102.81 43.9877C1064.07 43.9403 1025.33 43.7914 986.594 43.8523C964.728 43.8862 942.855 44.218 920.989 44.4753C896.037 44.7665 871.091 45.0035 846.146 45.4639C808.423 46.1614 770.701 46.3375 732.978 46.2833C693.637 46.2291 654.295 46.4323 614.954 45.7484C588.985 45.2947 563.008 45.6874 537.031 45.5994C495.785 45.4572 454.545 46.2359 413.292 45.6671C371.315 45.0847 329.331 44.7258 287.347 45.3624C259.458 45.789 231.59 46.7844 203.715 47.6444C179.214 48.396 154.691 48.5924 130.168 48.7278C98.5976 48.8971 67.0416 48.5315 35.4855 47.6918C18.4684 47.2381 1.46566 46.175 -15.5443 45.4707C-20.6723 45.2608 -25.8218 45.3217 -30.957 45.2608V43.595L-30.9785 43.5882Z" fill="#07558E"/>
<path d="M-30.9785 223.773C-5.3025 225.27 20.395 224.769 46.071 224.065C75.4212 223.259 104.793 223.408 134.136 222.521C162.168 221.674 190.208 221.695 218.24 221.078C256.686 220.239 295.153 220.421 333.592 219.223C348.998 218.742 364.396 219.785 379.802 220.164C392.414 220.476 405.034 220.53 417.654 220.686C438.495 220.943 459.33 221.132 480.171 221.451C501.6 221.776 523 222.846 544.415 223.624C580.204 224.925 615.978 226.577 651.796 227.18C669.701 227.484 687.585 228.412 705.468 229.258C722.908 230.085 740.376 229.8 757.823 230.098C776.316 230.416 794.808 230.985 813.3 231.385C825.039 231.642 836.785 231.656 848.516 232.028C866.708 232.604 884.893 233.389 903.077 234.087C921.419 234.791 939.776 234.452 958.125 234.777C986.451 235.278 1014.78 234.845 1043.1 235.888C1060.7 236.538 1078.33 236.653 1095.93 237.08C1114.27 237.526 1132.61 238.339 1150.96 238.488C1180.18 238.718 1209.32 240.804 1238.5 241.948C1255.21 242.605 1271.95 243.127 1288.65 243.878C1309.76 244.826 1330.86 245.971 1351.97 247C1371.02 247.928 1390.05 249.133 1409.13 249.83C1427.6 250.501 1446.05 251.781 1464.52 252.654C1480.06 253.392 1495.61 253.907 1511.15 254.584C1529.03 255.37 1546.91 256.365 1564.8 257.008C1579.46 257.537 1594.15 257.53 1608.81 258.024C1624.51 258.552 1640.18 259.419 1655.87 260.096C1665.84 260.523 1675.81 260.855 1685.78 261.268C1704.99 262.06 1724.19 262.703 1743.39 263.732C1778.99 265.635 1814.62 267.389 1850.17 269.922C1881.4 272.143 1912.65 272.116 1943.91 272.319C1960.79 272.427 1977.66 273.159 1994.54 273.28C2011.72 273.402 2028.87 273.951 2046.01 274.689V276.355C2036.04 275.996 2026.08 275.515 2016.1 275.312C1998.05 274.953 1979.98 275.082 1961.95 274.418C1938.31 273.545 1914.67 274.337 1891.04 273.612C1872.71 273.043 1854.39 271.967 1836.09 270.66C1825.26 269.888 1814.41 269.556 1803.56 268.953C1793.16 268.378 1782.75 267.836 1772.37 267.057C1754.95 265.75 1737.5 265.1 1720.05 264.376C1697.77 263.448 1675.48 262.73 1653.2 261.762C1629.3 260.726 1605.43 259.29 1581.5 259.013C1568.28 258.857 1555.08 258.403 1541.89 257.807C1514.33 256.561 1486.77 255.275 1459.21 253.981C1438.54 253.006 1417.87 252.031 1397.21 250.975C1379.18 250.054 1361.18 248.821 1343.14 248.09C1322.17 247.237 1301.22 246.032 1280.25 245.09C1259.88 244.183 1239.47 243.695 1219.11 242.578C1187.89 240.858 1156.64 240.303 1125.39 239.402C1088.7 238.346 1052.02 237.581 1015.33 236.782C992.295 236.281 969.247 236.396 946.2 236.308C918.898 236.199 891.618 235.454 864.345 234.093C848.373 233.294 832.352 233.396 816.359 233.044C795.811 232.59 775.27 231.974 754.722 231.635C738.292 231.364 721.841 231.771 705.425 230.917C680.652 229.631 655.857 229.123 631.062 228.392C599.964 227.477 568.859 226.38 537.783 225.019C510.352 223.814 482.921 223.191 455.469 222.913C430.531 222.67 405.585 222.521 380.647 221.959C363.043 221.566 345.446 220.55 327.834 221.051C297.46 221.911 267.071 221.573 236.704 222.372C205.441 223.191 174.165 222.521 142.917 223.861C121.051 224.796 99.1634 224.207 77.3048 224.837C49.4157 225.642 21.5338 226.083 -6.35532 225.927C-13.4028 225.886 -20.4431 225.568 -27.4834 225.385C-28.6508 225.351 -29.8254 225.046 -30.9714 225.48V223.814L-30.9785 223.773Z" fill="#07558E"/>
<path d="M-30.9785 512.405C-28.8084 511.762 -26.5953 512.222 -24.4109 512.222C-7.09302 512.222 10.2177 511.139 27.5427 511.755C50.1606 512.554 72.7139 510.787 95.3031 510.36C124.796 509.805 154.297 509.074 183.783 510.631C209.166 511.972 234.562 511.403 259.959 511.687C281.109 511.918 302.222 510.59 323.358 510.59C343.025 510.59 362.692 510.868 382.352 510.76C405.843 510.624 429.328 510.956 452.805 511.803C477.013 512.676 501.213 513.976 525.435 513.089C548.512 512.243 571.495 514.03 594.528 514.545C617.568 515.06 640.623 514.762 663.671 515.06C681.275 515.29 698.879 515.737 716.462 516.99C730.213 517.965 744.007 518.628 757.794 518.967C786.557 519.685 815.313 520.612 844.09 520.761C864.051 520.863 883.99 521.906 903.958 521.892C940.513 521.858 977.047 523.111 1013.59 523.551C1042.35 523.897 1071.12 523.944 1099.87 525.102C1127.73 526.226 1155.6 527.242 1183.46 528.197C1203.27 528.874 1223.08 529.239 1242.87 529.971C1282.49 531.433 1322.14 530.695 1361.76 531.074C1386.13 531.305 1410.49 531.914 1434.85 532.334C1454.81 532.679 1474.78 532.436 1494.75 532.334C1519.27 532.205 1543.77 532.794 1568.25 533.817C1587.02 534.596 1605.8 534.332 1624.57 534.589C1638.37 534.779 1652.14 535.76 1665.92 536.39C1682.04 537.121 1698.17 537.656 1714.31 538.279C1742.02 539.349 1769.77 539.668 1797.45 541.435C1812.82 542.41 1828.22 542.959 1843.64 543.406C1858.74 543.839 1873.82 544.922 1888.92 545.6C1904.9 546.324 1920.89 546.744 1936.86 547.59C1965.46 549.1 1994.1 548.674 2022.7 549.351C2030.48 549.534 2038.25 549.757 2046.03 549.96V551.626C2029.15 551.613 2012.28 550.631 1995.39 550.658C1970.73 550.699 1946.07 549.845 1921.44 548.755C1896.51 547.658 1871.6 546.148 1846.67 545.173C1829.66 544.503 1812.63 544.083 1795.64 543.08C1759.88 540.975 1724.05 540.507 1688.26 539.065C1673.45 538.469 1658.66 537.44 1643.85 536.79C1629.19 536.146 1614.51 535.923 1599.83 535.95C1579.71 535.984 1559.62 534.9 1539.52 534.345C1522.8 533.885 1506.05 533.729 1489.32 533.858C1461.58 534.074 1433.83 534.156 1406.09 533.201C1378.8 532.266 1351.49 532.774 1324.19 532.422C1302.76 532.151 1281.31 532.7 1259.88 532.002C1222.18 530.77 1184.47 529.578 1146.77 528.332C1123.44 527.56 1100.12 526.612 1076.79 525.955C1060.64 525.501 1044.49 525.711 1028.34 525.366C991.063 524.567 953.777 523.856 916.492 523.484C876.269 523.084 836.047 522.292 795.832 521.472C768.394 520.917 740.942 520.362 713.547 518.405C688.351 516.604 663.083 516.428 637.83 516.536C610.22 516.658 582.639 515.906 555.072 514.511C543.921 513.949 532.762 514.592 521.611 514.823C498.843 515.297 476.103 514.335 453.371 513.462C426.076 512.412 398.767 512.344 371.458 512.514C350.022 512.649 328.572 511.654 307.157 512.547C277.506 513.78 247.855 513.049 218.204 513.367C206.752 513.489 195.3 513.001 183.869 512.317C167.733 511.349 151.583 511.633 135.432 511.525C107.378 511.335 79.3675 512.663 51.3423 513.462C40.4918 513.773 29.6197 513.272 18.762 513.292C3.64292 513.319 -11.4834 513.509 -26.6025 513.59C-28.0564 513.597 -29.5175 513.36 -30.9714 513.238V512.405H-30.9785Z" fill="#07558E"/>
<path d="M-30.9785 157.039C-19.0966 156.714 -7.22909 155.99 4.6671 155.969C57.9601 155.861 111.239 153.755 164.546 154.588C184.8 154.906 205.047 155.279 225.302 155.617C236.31 155.8 247.311 155.929 258.319 156.166C276.224 156.559 294.093 157.926 312.006 157.994C350.022 158.143 388.017 159.274 426.04 159.186C458.771 159.111 491.516 159.728 524.239 160.601C557.106 161.481 589.987 161.989 622.854 163.012C648.816 163.824 674.786 164.617 700.749 165.463C750.654 167.082 800.559 166.188 850.464 166.093C879.679 166.039 908.886 166.357 938.092 166.296C983.013 166.208 1027.92 167.088 1072.82 167.989C1087.92 168.294 1103.01 169.452 1118.1 170.217C1135.4 171.097 1152.69 171.95 1169.98 172.871C1182.58 173.542 1195.17 174.375 1207.77 175.018C1224.47 175.871 1241.21 175.973 1257.94 176.061C1286.72 176.216 1315.49 176.487 1344.27 176.013C1377.88 175.458 1411.48 174.517 1445.1 174.361C1489.87 174.158 1534.64 174.178 1579.41 174.598C1602.15 174.815 1624.91 174.442 1647.65 174.855C1674.95 175.35 1702.25 174.903 1729.54 175.81C1747.15 176.399 1764.75 176.9 1782.36 177.246C1799.52 177.577 1816.67 178.471 1833.82 179.291C1855.37 180.327 1876.94 180.706 1898.51 181.214C1920.08 181.722 1941.66 182.439 1963.24 182.798C1990.82 183.252 2018.43 183.428 2046.01 183.719V185.385C2016.66 185.047 1987.3 184.864 1957.95 184.329C1930.8 183.834 1903.66 182.71 1876.51 182.318C1846.56 181.877 1816.69 179.69 1786.75 179.013C1743.61 178.038 1700.48 176.819 1657.31 176.751C1632.81 176.711 1608.3 176.657 1583.8 176.433C1548.29 176.108 1512.77 176.257 1477.26 176.067C1436.74 175.851 1396.24 176.921 1355.73 177.564C1312.86 178.241 1270 177.957 1227.14 177.3C1204.83 176.955 1182.58 175.194 1160.32 173.928C1147.28 173.183 1134.23 172.675 1121.18 172.025C1106.82 171.307 1092.46 170.433 1078.09 169.844C1066.95 169.384 1055.79 169.167 1044.64 169.005C1017.34 168.592 990.039 168.158 962.744 167.948C930.594 167.705 898.443 167.427 866.3 167.644C822.991 167.935 779.675 168.111 736.366 167.779C709.508 167.576 682.657 166.513 655.814 165.68C626.32 164.766 596.82 164.17 567.334 163.323C523.459 162.064 479.577 161.448 435.695 160.608C414.13 160.195 392.543 160.527 370.971 160.317C347.924 160.093 324.876 159.775 301.836 159.213C285.549 158.813 269.284 157.757 253.005 157.317C238.917 156.931 224.815 157.188 210.727 156.823C168.306 155.712 125.864 155.306 83.4499 156.125C51.1633 156.748 18.8623 156.707 -13.4243 157.52C-19.2757 157.669 -25.1128 158.285 -30.9785 157.872L-30.9785 157.039Z" fill="#07558E"/>
</g>
</svg>
