<svg xmlns="http://www.w3.org/2000/svg" width="1512" height="897" fill="none"><mask id="a" width="1512" height="897" x="0" y="0" maskUnits="userSpaceOnUse" style="mask-type:alpha"><path fill="#D9E7D0" fill-opacity=".27" d="M0 0h1512v897H0z"/></mask><g fill="#07558E" mask="url(#a)"><path d="M1409.7-3.28c.58 8.749.16 17.514.01 26.263-.51 28.532-1.24 57.056-1.83 85.581-.39 19.122-.5 38.26-1.06 57.375-.67 22.79-.59 45.587-.94 68.377-.45 29.807-1.22 59.605-1.9 89.404-.43 18.967-.79 37.934-1.46 56.893-1.06 30.117-1.35 60.25-2.03 90.367-.38 16.901-.55 33.793-.71 50.693-.29 29.807-.39 59.621-.92 89.419-.58 31.882-.57 63.763-.81 95.644-.23 29.923-.45 59.846-.43 89.769.01 29.161.35 58.323.53 87.484.1 15.307.12 30.615.28 45.93.31 30.288.6 60.576 1.09 90.861.45 27.42.27 54.84.78 82.25.67 37.31.4 74.61.6 111.91.18 32.38.06 64.75.25 97.12.23 37.47.63 74.93 1 112.39.19 19.61.24 39.23.81 58.83.86 29.64 1 59.31 1.76 88.95.42 16.27.79 32.52.7 48.78 0 1.5.22 3.07-.3 4.52-1.38-.19-1.23-1.09-1.19-1.8 1.01-18.51-.35-36.98-.81-55.46-.33-12.91-.3-25.83-.59-38.74-.45-19.61-1.24-39.2-1.48-58.81-.53-44.47-1.01-88.96-1.39-133.44-.41-49.9-.3-99.8-.73-149.69-.17-20.56-.07-41.11-.24-61.66-.21-26.47-.61-52.92-.87-79.39-.26-26.14-.27-52.284-.71-78.415-.42-24.228-.57-48.455-.86-72.69-.74-61.058-.62-122.109-.39-183.167.12-32.029.6-64.057.9-96.086.32-33.466.51-66.932.98-100.399.47-33.777 1.15-67.546 1.87-101.315.69-31.71 2.03-63.397 2.55-95.123.57-35.059 1.58-70.11 1.72-105.185.1-23.901.91-47.802 1.39-71.695.14-7.172.17-14.352.32-21.524.47-23.1 1.02-46.201 1.44-69.302.34-18.322 1.19-36.628.91-54.958h1.77zM977.031-3.28c-.265 15.128-.537 30.257-.795 45.393-.623 36.823-1.203 73.646-1.869 110.461-.609 33.793-1.239 67.577-1.991 101.37-.609 27.413-1.39 54.819-2.156 82.224-.695 24.701-1.432 49.403-2.22 74.104-.996 31.384-2.142 62.768-3.066 94.152-.594 20.078-.866 40.172-1.368 60.25-.472 19.122-1.167 38.237-1.561 57.367-.473 23.272-.501 46.559-1.124 69.823-1.153 42.705-1.347 85.425-1.605 128.138-.143 24.398 0 48.797.48 73.187.516 25.821.917 51.641 1.626 77.461 1.246 45.26 1.783 90.54 2.313 135.82.265 22.64.022 45.29.416 67.92 1.081 62.19.207 124.4.902 186.6.351 31.88.229 63.78.903 95.66.558 26.32 0 52.62.222 78.93.229 26.94.83 53.88 1.231 80.82.043 2.97.466 5.97-.3 9.04-.946-.89-.731-1.9-.752-2.82-.301-15.15-.38-30.3-.924-45.43-1.562-43.83-.179-87.69-1.067-131.52-.631-30.91-.731-61.84-.903-92.77-.229-40.34-.286-80.67-.437-121.02-.071-18.33.115-36.68-.343-55.01-.795-31.55-.38-63.12-.896-94.68-.508-31.08-.967-62.16-1.776-93.233-.831-31.866-1.912-63.723-2.349-95.605-.537-38.874-.637-77.748-.143-116.638.372-29.324.73-58.649 1.267-87.974.538-29.488 1.003-58.975 1.683-88.456.71-30.754 1.59-61.501 2.464-92.247.602-21.034 1.304-42.06 1.977-63.086.788-24.686 1.626-49.364 2.363-74.05.717-24.049 1.411-48.105 1.984-72.154.831-34.577 1.554-69.155 2.307-103.74.465-21.36.759-42.72 1.375-64.081.601-20.87.487-41.757.988-62.627.516-21.664.673-43.327.824-64.99.014-2.168-.158-4.445.558-6.581h1.762zM1276.64-3.28c-.99 4.398-.53 8.881-.62 13.326-.66 31.57-.26 63.148-.38 94.718-.11 29.333-.19 58.681-.8 88.005-.86 41.446-1.51 82.885-1.9 124.339-.26 27.576-.52 55.153-1.13 82.721-.89 39.69-1.17 79.38-1.74 119.07-.43 29.962-.51 59.932-.95 89.894-.46 31.088-1.27 62.169-1.61 93.257-.24 22.472-1.09 44.935-1.68 67.407-.56 21.36-.95 42.72-1.73 64.073-1.5 41.267-1.87 82.566-2.73 123.849-.51 23.753-.3 47.521-.86 71.271-.79 33.31-1.19 66.63-1.63 99.94-.46 35.72-.3 71.44.53 107.12.92 39.7 1.09 79.41 1.67 119.11.36 24.7.44 49.43 1.75 74.11 1.24 23.39 2.54 46.79 2.5 70.24-.04 27.91.27 55.83-.43 83.73-.31 12.6-.62 25.19-.79 37.78-.02 1.69.01 3.46-.86 5.27-1.27-1.72-.65-3.37-.62-4.87.4-26.93 1.07-53.85 1.23-80.79.14-24.68.25-49.37-.73-74.03-.87-21.65-2.32-43.28-2.83-64.96-.35-14.51-.27-29.02-.72-43.52-.76-23.76-.33-47.52-.72-71.26-.39-24.39-1.1-48.78-1.52-73.17-.33-18.97-.69-37.93-.59-56.9.16-28.03.72-56.05 1.1-84.07.17-12.92.11-25.84.54-38.74.86-25.5.52-51.016 1.14-76.518.65-27.087.86-54.197 1.43-81.284.39-18.803 1.09-37.607 1.57-56.411.43-16.411.72-32.829 1.14-49.248.5-19.441 1.23-38.874 1.59-58.315.83-43.831 1.78-87.655 2.15-131.487.39-45.587.9-91.167 1.48-136.747.21-17.204.86-34.399 1.13-51.61.31-19.759.2-39.527.64-59.279.59-26.449.38-52.915.95-79.364.96-44.788 1.64-89.575 1.9-134.378.12-21.966-.29-43.932-.1-65.899.14-17.04.43-34.08.65-51.128.02-1.748-.04-3.504-.05-5.252h2.64zM1127.71-3.28c-.15 10.032-.3 20.071-.48 30.102-.17 10.203-.35 20.405-.6 30.607-.53 21.197-1.15 42.394-1.64 63.599-.38 16.737-.5 33.474-.97 50.203-.66 23.264-1.72 46.513-2.28 69.776-.62 25.984-1.95 51.936-3.07 77.897-1.07 24.841-2.15 49.69-3.53 74.516a4808 4808 0 0 0-3.59 75.938c-1 25.486-2.13 50.957-2.71 76.458-.54 23.909-1.1 47.818-1.7 71.727-.84 33.466-1.69 66.932-2.6 100.391-.7 25.657-1.2 51.322-1.74 76.987-1.21 57.864-1.58 115.729-1.57 173.609 0 25.183-.35 50.37-.48 75.55-.3 58.98-.62 117.95-.42 176.93.08 22.8 0 45.61.38 68.4.63 36.97-.08 73.92-.67 110.88-.49 31.09-1.75 62.18-1.17 93.26.62 33.01.44 66.02.93 99.03.14 9.55.4 19.12.35 28.68-.01 1.46.36 3.07-.98 4.85-.91-1.92-.61-3.48-.63-4.95-.34-36.19-.24-72.4-1.12-108.58-.81-33.35.21-66.64.5-99.96.21-25.18 1.11-50.37 1.12-75.55.01-46.39-.55-92.78-.6-139.17-.05-48.8.07-97.59.53-146.38.39-41.9.35-83.806.48-125.711.09-26.457.41-52.907.67-79.364.31-31.881.94-63.755 1.77-95.62.48-18.967.83-37.934 1.32-56.901.76-29.154 1.62-58.308 2.37-87.461.49-18.967.75-37.934 1.3-56.901.76-25.813 1.63-51.618 2.59-77.415.75-20.07 1.56-40.141 2.65-60.188 1.28-23.551 2.54-47.095 3.48-70.67.74-18.951 1.64-37.895 2.65-56.831 1.37-25.47 1.63-50.988 2.65-76.474 1.49-36.955 1.66-73.941 2.65-110.911.66-25.176 1.32-50.351 1.89-75.527.18-8.283.38-16.566.51-24.849h1.76zM1479.31-3.28c.48 8.602.06 17.204-.3 25.79-.48 11.632-.68 23.264-.84 34.896-.34 24.546-.32 49.107-.94 73.646-.89 34.911-.72 69.83-.38 104.734.64 65.526.7 131.052.92 196.578.05 17.374-.17 34.748.15 52.115.86 45.758.54 91.517.46 137.268-.09 50.692-.56 101.385-1.07 152.07-.5 48.937-.72 97.865-.42 146.802.22 34.267.42 68.541 1.01 102.811.39 23.1.12 46.23.82 69.33 1.06 35.21 1.02 70.45 2.26 105.67.7 20.07.87 40.17 1.32 60.25.54 24.22 1.5 48.44 1.11 72.66-.44 27.58-.16 55.17-.92 82.74-.82 30.3-.38 60.59-.81 90.89-.23 15.94-.73 31.88-.83 47.83-.14 22.95-.35 45.91-.55 68.86-.02 1.31.34 2.74-.43 4.02-1.3-.69-1.04-1.76-1.01-2.61.83-35.07-.1-70.15 1.01-105.23.63-19.59.09-39.22.26-58.84.33-36.67.59-73.34 1.28-110 .58-30.28-.31-60.52-.95-90.77-.42-19.61-.79-39.21-1.38-58.82-.8-26.76-1.15-53.53-1.68-80.31-.41-20.56-.62-41.12-.98-61.68-.97-56.57-1.59-113.156-1.58-169.739.01-36.193.23-72.387.42-108.58.2-36.505.24-73.017.8-109.521.75-49.582.46-99.155.35-148.737-.07-32.51-.46-65.029-.58-97.539-.14-36.675.08-73.351-.25-110.026-.31-31.889-.75-63.778-.79-95.667-.04-31.725-.09-63.459.43-95.184.54-33.148 1.05-66.296 1.72-99.443.18-8.765.87-17.506.62-26.287h1.76zM1352.42-3.28c-.89 16.713-1.51 33.435-1.99 50.172-.76 27.079-1.62 54.158-2.73 81.229-.57 13.862-.45 27.74-.88 41.602-.64 20.07-1.34 40.141-1.99 60.203-.45 13.87-.85 27.732-1.3 41.602-.6 18.648-1.28 37.289-1.83 55.937-.63 20.879-1.14 41.757-1.77 62.628-.71 23.264-1.74 46.52-2.2 69.792-.32 16.737-.96 33.466-1.38 50.195-.64 25.184-1.61 50.351-2.23 75.527-.93 37.46-1.69 74.92-2.32 112.388-.49 28.866-.3 57.732-.76 86.59-.81 50.064-.29 100.127-.85 150.19-.41 36.505-.61 73.005-.93 109.505-.26 29.16-.44 58.32-.86 87.48-.67 47.19-.61 94.38-1.12 141.56-.43 40.34.61 80.66.62 120.99.02 43.22-.14 86.45-.22 129.66-.06 32.06-1.1 64.11-.72 96.17.02 1.69.38 3.49-.62 5.36-.92-2.12-.57-4.19-.56-6.14.11-46.57-.04-93.13.5-139.69.48-41.3-.4-82.58-.28-123.87.05-20.86-.59-41.72-.53-62.59.15-45.91.52-91.83.85-137.75.23-33.3.54-66.6.86-99.9.24-25.65.51-51.31.84-76.969.75-58.175.51-116.366.86-174.541.21-34.111.39-68.222.83-102.326.38-29.177.98-58.354 1.76-87.523.58-21.671 1.36-43.342 1.8-65.021.38-18.959 1.16-37.911 1.72-56.87.88-29.954 1.76-59.908 2.58-89.862.63-22.946 1.08-45.907 1.81-68.852 1-31.376 2.16-62.744 3.28-94.112 1.32-37.274 2.26-74.563 2.98-111.86.51-26.286 1.98-52.557 2.73-78.844.49-17.359 1-34.725 2.28-52.052h1.76zM1193.81-3.28c.45 5.252.1 10.505-.04 15.75-.87 32.51-1.85 65.02-2.89 97.523-1.29 40.165-1.75 80.329-1.79 120.5-.02 13.855-.48 27.717-.14 41.555.9 36.357-.42 72.698-.54 109.039-.09 22.48-.49 44.951-.96 67.422-.81 38.408-1.66 76.816-2.77 115.217-.47 16.263-.47 32.518-.8 48.781-.52 25.502-1.08 50.996-1.49 76.497-.25 15.3-.01 30.623-.43 45.914-.56 20.879-.56 41.765-.82 62.651-.31 25.494-.53 50.996-.88 76.49-.5 37.142-1.16 74.283-1.59 111.425-.26 21.206-.1 42.406-.26 63.616-.29 37.46.31 74.92.23 112.38-.13 63.8.13 127.6.51 191.39.17 26.78 1.21 53.56 1.66 80.33.71 40.66.43 81.33.95 121.99.28 21.85-.28 43.68-.34 65.52 0 1.56.25 3.17-.49 5.18-1.42-2.93-.97-5.73-.85-8.37.5-10.51.52-21.03.45-31.54-.25-43.21-.58-86.43-.97-129.64-.19-20.89-.33-41.78-.94-62.65-1.83-62.01-1.57-124.04-1.56-186.06.01-40.83-.16-81.65-.29-122.47-.16-48.61-.15-97.229.61-145.831.33-20.879.26-41.765.9-62.628.62-20.241.63-40.483.97-60.724.45-26.279.25-52.573.8-78.852.48-23.435.11-46.885.81-70.304.97-32.977 1.16-65.977 1.97-98.954.88-36.333 1.64-72.674 2.49-109.008.88-37.771 1.2-75.549 1.65-113.328.2-17.366.63-34.733.5-52.107-.12-17.669-.37-35.339-.31-53.008.09-27.39.19-54.78.69-82.154.48-26.131 1.49-52.255 2.25-78.386.43-15.136.8-30.272 1.21-45.409.28-10.676.61-21.352.88-32.028.05-1.904-.07-3.816-.12-5.727h1.76zM840.443-3.28c.853 2.339.186 4.732.143 7.086-.386 20.405-.687 40.817-1.289 61.214-.573 19.433-1.497 38.851-2.22 58.284a5108 5108 0 0 0-2.156 70.25c-.551 23.427-1.604 46.839-2.313 70.258-.501 16.403-.702 32.821-1.21 49.232-.996 32.021-2.192 64.042-3.152 96.063-.917 30.436-1.669 60.879-2.428 91.315-.823 33.148-1.504 66.303-2.349 99.458-.473 18.641-.988 37.29-1.776 55.922-.895 21.182-1.432 42.371-1.877 63.568-.558 26.45-1.64 52.892-1.933 79.35-.437 40.008-.351 80.025-.559 120.033-.15 29.333-.53 58.665-.602 87.997-.071 27.91-.214 55.82.265 83.72.702 40.97 1.727 81.93 2.672 122.89.881 38.26.809 76.53 1.619 114.78.479 22.64.229 45.3.952 67.92 1.461 45.76 1.16 91.52 1.432 137.28.122 20.57.645 41.13 1.154 61.69.179 7.32.852 14.62 1.267 21.94.158 2.69.244 5.37.358 8.06-.286.05-.573.1-.859.14-.265-2.46-.637-4.92-.774-7.4-1.353-24.35-1.754-48.73-2.263-73.11-.637-30.45-.064-60.9-.494-91.33-.394-27.74-1.031-55.47-1.533-83.2-.186-10.36-.193-20.73-.465-31.09-.745-28.21-.537-56.44-.988-84.65-.638-40.33-1.469-80.67-2.658-120.98-1.532-52.28-1.762-104.56-1.224-156.846.358-34.904.193-69.816.494-104.719.2-23.42.15-46.847.494-70.266.387-26.45 1.039-52.9 1.662-79.341.501-21.19.938-42.387 1.783-63.561 1.139-28.508 1.819-57.033 2.593-85.557.68-24.857 1.275-49.714 1.797-74.571.709-33.629 1.633-67.251 2.557-100.872.473-17.366 1.067-34.733 1.726-52.091.767-20.226 1.39-40.452 1.877-60.693.673-28.362 1.633-56.707 2.521-85.061.866-27.871 1.547-55.751 2.757-83.599 1.311-30.265 2.206-60.53 2.543-90.826.107-9.557.981-19.091.702-28.664h1.761zM127.545-3.281c-.1 25.836-.787 51.648-1.518 77.468-.623 21.835-.831 43.692-1.339 65.534-.674 29.006-1.526 58.005-2.185 87.003-.523 23.116-.816 46.233-1.325 69.349-.852 38.579-1.79 77.166-2.7 115.744-.265 11.158-.494 22.316-.831 33.474-.709 23.264-1.547 46.521-2.198 69.792-.566 20.078-.888 40.172-1.411 60.25-1.046 40.646-1.454 81.3-1.791 121.961-.236 28.998-.351 57.997-.208 86.995.215 43.684.359 87.36.445 131.044.121 61.556.078 123.117.257 184.677.101 33.79.48 67.58.781 101.37.301 33.33.494 66.66 1.067 99.98.444 25.82.38 51.66.852 77.49.917 50.39.387 100.79.795 151.17.165 20.74.459 41.47.924 62.19.23 10.03 1.003 20.05 1.512 30.06.05.93 0 1.87-.237 2.82-1.446-4.95-1.339-10.09-1.604-15.17-1.411-27.55-1.432-55.13-1.862-82.7-.745-47.82-.373-95.64-.86-143.47-.351-34.44-.995-68.87-1.468-103.3-.58-42.72-.895-85.44-1.217-128.16-.308-40.98-.538-81.94-.559-122.91-.014-35.879-.029-71.754-.1-107.621-.072-37.475-.272-74.959-.301-112.434-.014-16.528-.065-33.063-.014-49.597.121-37.126.064-74.26.572-111.386.445-32.511 1.161-65.021 1.87-97.531.387-18.012.981-36.015 1.504-54.019.544-18.804 1.16-37.607 1.661-56.411.702-26.131 1.232-52.27 2.006-78.402.831-28.205 1.139-56.427 1.812-84.64.687-29.006 1.232-58.012 1.783-87.018.444-23.428 1.01-46.847 1.719-70.258.745-24.702 1.124-49.411 1.783-74.12.394-14.826.595-29.651.767-44.477.021-1.585-.101-3.178-.158-4.763h1.762zM297.623-3.28c.409 5.743-.043 11.477-.279 17.196-1.246 29.783-2.557 59.559-3.602 89.349-.896 25.487-2.206 50.949-3.424 76.42a9624 9624 0 0 1-3.474 67.795c-1.403 25.618-2.943 51.229-4.419 76.839-.845 14.632-1.661 29.271-2.521 43.902-1.332 22.58-2.728 45.16-4.032 67.74-.716 12.402-1.282 24.818-1.955 37.227-1.067 19.573-2.199 39.139-3.259 58.712-.501 9.231-.909 18.462-1.368 27.693-1.053 21.484-2.163 42.977-3.144 64.469-.587 12.899-.888 25.813-1.468 38.703-1.168 25.79-1.776 51.602-2.564 77.399-1.16 38.082-1.884 76.179-2.657 114.269-.595 29.169-1.232 58.338-1.726 87.507-.416 24.236-1.068 48.463-1.777 72.68-.938 32.19-2.041 64.36-3.029 96.55-.458 14.98-.795 29.96-1.211 44.94-1.26 45.11-1.919 90.24-1.862 135.38.036 31.73.086 63.47-.086 95.2-.136 26-.386 52-.966 77.98-.373 16.74-.323 33.48-.774 50.22-.723 27.26-.458 54.52-.537 81.77-.029 9.23.988 18.44.1 27.74-.279-4.06-.752-8.12-.802-12.2-.444-38.9-.58-77.81.136-116.72.33-18.01.337-36.03.702-54.04 1.432-70 .057-140.01.931-210.01.401-31.88.91-63.77 2.141-95.64.638-16.4.824-32.83 1.297-49.25.802-28.04 1.704-56.08 2.492-84.12.451-16.104.774-32.204 1.11-48.304.566-27.094 1.103-54.189 1.64-81.291.616-30.755 1.118-61.517 1.863-92.264.73-29.946 1.582-59.9 2.621-89.839 1.01-29.138 2.263-58.276 3.531-87.406.738-17.033 1.654-34.057 2.6-51.074 1.296-23.38 2.721-46.753 4.046-70.133.738-13.039 1.311-26.093 2.07-39.123 1.318-22.736 2.743-45.464 4.075-68.199.681-11.609 1.239-23.233 1.905-34.842 1.139-20.039 2.364-40.071 3.467-60.118a21778 21778 0 0 0 4.333-80.654c.795-15.44 1.253-30.894 2.184-46.318 1.44-23.699 1.87-47.453 3.044-71.167.895-18.144 1.261-36.318 2.249-54.462.559-10.17.251-20.396 1.518-30.529h.881zM773.471-3.28c.487 6.69-.065 13.364-.294 20.039-.501 14.662-1.074 29.317-1.662 43.972-1.088 27.086-1.296 54.197-1.869 81.299-.716 34.111-1.611 68.222-2.55 102.326-.823 29.961-1.833 59.923-2.743 89.885-.587 19.278-1.06 38.563-1.719 57.841-.78 22.79-1.231 45.58-1.761 68.378-.803 34.585-2.056 69.155-2.622 103.755-.372 22.635-1.174 45.254-1.762 67.881-.587 22.479-.895 44.966-1.769 67.429-1.396 36.163-1.912 72.356-3.043 108.526-.681 21.671-.896 43.358-1.347 65.037-.566 27.102-.981 54.212-1.826 81.307-.48 15.307-.459 30.615-.939 45.925-1.203 38.4-1.375 76.84-1.69 115.26-.487 59.15.351 118.3.595 177.46.286 69.67.888 139.35.25 209.02-.236 25.83-.136 51.67-.831 77.49-.393 14.67-.658 29.34-.68 44.01 0 .46-.129.93-.308 2.11-1.038-3.16-.895-5.82-.874-8.38.194-24.71.28-49.42.76-74.11 1.131-58.21.401-116.42.522-174.63.065-31.41.122-62.83-.401-94.25-.68-40.98-.537-81.97-.716-122.95-.136-30.93.036-61.88.501-92.81.631-42.08 1.54-84.16 2.593-126.236.702-28.213 1.074-56.442 1.783-84.648.874-35.059 1.662-70.118 2.615-105.169.873-32.192 1.905-64.384 2.657-96.584.809-34.585 1.876-69.162 2.635-103.747.752-34.43 2.042-68.844 2.65-103.274.358-20.241 1.132-40.483 1.719-60.716.881-30.754 1.676-61.501 2.679-92.248.652-20.078 1.275-40.156 1.769-60.242.917-37.297 2.091-74.578 2.593-111.891.186-13.87.465-27.74.938-41.593.78-23.101 1.74-46.186 2.657-69.28.079-2.059.408-4.11.623-6.169h.881zM920.63-3.281c-.623 1.157-.565 2.455-.623 3.722-.737 16.558-1.468 33.116-2.22 49.674-.688 15.121-1.432 30.25-2.084 45.37-.244 5.735-.294 11.477-.416 17.219-.307 14.981-.479 29.97-.931 44.943-.673 22.471-1.518 44.935-2.313 67.399-2.048 57.864-2.392 115.744-2.227 173.64.078 28.858-.538 57.717-.903 86.575-.2 15.937-.394 31.874-.845 47.803-1.088 37.926-1.067 75.875-1.812 113.802-.494 25.027-.401 50.063-.859 75.091-.48 26.302-1.168 52.596-1.805 78.898-.516 21.205-.895 42.41-1.698 63.599-1.203 31.71-1.69 63.444-2.442 95.162-.687 29.177-.687 58.364-1.146 87.544-.551 35.24-.523 70.48-.974 105.72-.444 34.6-.465 69.2-.852 103.81-.537 48.62-.351 97.25-.215 145.87.072 24.05-.329 48.1.036 72.14.358 23.13.809 46.26.179 69.37-.673 24.56.967 49.1.451 73.65-.05 2.21 0 4.43 0 7.33-1.253-1.92-.838-3.42-.859-4.79-.129-9.57-.115-19.14-.287-28.71-1.21-67.29-.494-134.59-.866-201.89-.194-34.43-.144-68.88-.072-103.32.079-37.15 0-74.32.559-111.47.472-31.4.3-62.81.852-94.21.48-27.11.351-54.22.823-81.331.602-34.437 1.562-68.859 2.257-103.297.551-27.258 1.79-54.492 2.198-81.758.366-24.39.967-48.781 1.748-73.164.838-26.146.494-52.301.974-78.44.444-24.227.609-48.462.938-72.69.208-15.307.33-30.614.759-45.914 1.118-39.519 1.089-79.062 1.827-118.588.716-38.113 0-76.226.386-114.339.258-25.991 1.311-51.959 1.891-77.943.695-31.236 2.493-62.433 2.915-93.685.272-20.56.91-41.127 1.662-61.672.594-16.24 1.511-32.471 2.492-48.695.652-10.809.544-21.664 1.741-32.44h1.761zM613.972-3.28c-1.217 9.347-.766 18.773-.96 28.167-.83 41.135-1.131 82.278-.845 123.421.215 30.933.595 61.866 1.254 92.792.809 37.778 1.317 75.557 1.819 113.336.845 63.319.637 126.63.566 189.95-.029 26.62-.359 53.241-.588 79.862-.279 32.362-.272 64.725-.981 97.08-.315 14.507-.136 29.03-.458 43.537-.989 43.513-1.039 87.041-1.87 130.554-.415 21.687-.386 43.373-.902 65.052a33498 33498 0 0 1-2.607 104.239c-.466 17.36-1.06 34.74-1.705 52.1-.83 22.31-1.153 44.62-1.797 66.94-.759 26.14-1.347 52.27-1.791 78.41-.451 26.47-.967 52.93-1.719 79.39-.881 31.08-1.697 62.16-1.969 93.24-.251 28.54-.28 57.09-.609 85.62-.272 23.6-1.984 47.11-3.896 70.61-.867 10.63-1.533 21.28-2.858 31.87-.107.88.093 1.9-.788 2.66-1.16-.43-.716-1.43-.616-2.25 1.92-16.61 2.794-33.32 4.061-49.99 1.218-16.05 2.256-32.1 2.421-48.2.193-19.13.193-38.27.387-57.4.272-27.1.558-54.19 1.01-81.28.372-22.32.995-44.62 1.511-66.94.773-33.46 1.54-66.93 2.342-100.4.609-25.5 1.217-51 1.912-76.49 1.175-43.03 2.636-86.04 3.803-129.07.91-33.633 1.375-67.27 1.963-100.9.293-16.892.58-33.784.787-50.677.273-22.16.244-44.329.738-66.489.974-43.995 1.153-87.998 1.834-131.992.594-38.579.086-77.166.816-115.737.38-20.203.287-40.413.244-60.616-.094-40.42-.452-80.841-.616-121.261-.172-41.446-1.11-82.877-1.963-124.315-.386-18.812-.243-37.639-.773-56.443-.724-25.82-.695-51.641-.638-77.469.079-33.481.645-66.948 1.182-100.422.057-3.504.358-7 .552-10.497h1.761zM215.667-3.28c-.25 18.811-.623 37.623-.73 56.435-.129 23.76-.616 47.507-1.311 71.244-.673 22.783-1.611 45.557-2.614 68.331-1.046 23.723-2.278 47.437-3.481 71.152a24681 24681 0 0 1-3.617 69.232c-1.253 23.396-2.585 46.777-3.473 70.196-.795 21.026-1.705 42.052-2.586 63.071-1.21 28.99-1.762 58.012-2.7 87.018-1.103 34.103-1.841 68.215-2.736 102.326-.666 25.346-1.01 50.692-1.676 76.039-1.189 45.277-1.489 90.561-1.969 135.846-.394 37.149-.294 74.306-.459 111.455-.114 25.995-.05 51.975-.437 77.965-.415 27.74-.329 55.5-.651 83.24-.738 63.31-.609 126.63-.459 189.94.086 36.52.437 73.04.924 109.55.387 29.5 1.039 59 1.784 88.49.73 28.85 1.726 57.68 2.607 86.53.107 3.52.866 7.05.236 11.12-1.483-1.37-1.146-2.71-1.189-3.88-1.289-32.65-2.07-65.33-3.058-97.99-1.067-35.07-1.454-70.14-1.934-105.22-.48-35.24-.544-70.47-.723-105.71-.158-29.6-.366-59.2-.294-88.79.079-33.47.458-66.93.68-100.41.265-40.5.552-80.99.738-121.5.179-38.587.172-77.182.373-115.769.15-28.532.379-57.072.787-85.604.473-32.844 1.132-65.689 1.798-98.526.466-22.953 1.06-45.906 1.64-68.851.587-23.264 1.182-46.536 1.848-69.8.816-28.369 1.654-56.738 2.621-85.099.759-22.3 1.669-44.601 2.629-66.894.78-18.151 1.697-36.294 2.621-54.438 1.132-22.113 2.335-44.227 3.517-66.341.873-16.388 1.69-32.783 2.671-49.162 1.125-18.773 1.905-37.554 2.664-56.342.989-24.367 2.02-48.727 2.686-73.11 1.053-38.57 1.411-77.15 1.49-115.736h1.762zM55.287-3.28c-.623 23.909-1.175 47.817-1.884 71.726-.773 26.131-1.754 52.255-2.542 78.394-1.153 38.245-2.22 76.482-2.915 114.742-.48 26.147-.68 52.286-.981 78.432-.316 28.066-.452 56.124-.774 84.19-.437 37.942-.917 75.884-1.482 113.818-.602 40.009-1.197 80.025-2.035 120.034-.73 34.748-1.231 69.504-1.833 104.252-.508 29.496-.48 58.999-.86 88.495-.708 54.834-.458 109.676-.336 164.507.136 57.55.473 115.1.981 172.65.301 33.95.938 67.91 1.712 101.86.645 28.21 1.611 56.41 2.621 84.61.817 22.77 1.963 45.52 2.858 68.3.58 14.65.845 29.32 1.468 43.97 1.29 30.43 1.476 60.88 1.955 91.33.237 14.83-.129 29.64-.172 44.46 0 .93.15 1.94-.658 2.78-.967-1.62-.502-3.39-.495-5.05.18-24.55.2-49.11-.336-73.67-.451-20.56-.931-41.12-1.583-61.67-.745-23.57-1.526-47.16-2.607-70.72-1.082-23.4-1.977-46.81-2.765-70.23-1.088-32.34-2.034-64.68-2.642-97.03-.444-23.6-.43-47.2-.831-70.79-.824-48.63-.588-97.26-.81-145.89-.078-16.86-.308-33.718-.358-50.58-.071-24.841-.15-49.682-.035-74.524.186-39.371.3-78.75.888-118.122.336-22.153.458-44.313.895-66.466.623-31.718 1.124-63.444 1.805-95.161.737-34.267 1.16-68.541 1.747-102.808.408-23.916.394-47.841.838-71.75.63-34.111.509-68.237.817-102.349.207-23.582.33-47.165.938-70.739.423-16.256.415-32.511.888-48.758.595-20.389 1.096-40.786 1.705-61.175.523-17.685 1.11-35.37 1.711-53.055.803-23.567 1.79-47.134 2.443-70.708.437-15.766 1.31-31.524.888-47.305h1.776M420.989-3.28c.058 9.72-.308 19.433-.523 29.146-.401 18.811-.472 37.623-.751 56.442-.559 37.15-1.111 74.291-1.777 111.44-.401 22.479-.988 44.951-1.547 67.422-.881 35.059-1.826 70.118-2.721 105.177-.58 22.627-1.06 45.254-1.683 67.881-.853 31.073-1.734 62.153-2.722 93.219-.752 23.419-1.719 46.831-2.543 70.242-.63 18.004-1.074 36.007-1.804 54.003-.752 18.477-1.333 36.955-1.82 55.44-.615 23.264-1.64 46.513-2.549 69.769-.838 21.337-1.705 42.681-2.672 64.01-.952 21.019-2.198 42.014-3.044 63.032-.644 15.929-.744 31.874-1.296 47.81-1.132 32.829-1.203 65.677-1.998 98.507-.831 34.43-1.576 68.85-2.557 103.26-.91 31.88-1.096 63.77-1.647 95.65-.516 29.97-1.34 59.94-2.342 89.9-1.275 38.26-1.118 76.53-1.153 114.81-.029 26.16 1.174 52.28 2.098 78.41.724 20.23 1.54 40.46 2.7 60.67.509 8.91.487 17.84 1.232 26.73.158 1.88.437 3.8-.236 5.67-1.533-.02-1.01-1.31-1.046-2.06-1.024-23.88-1.798-47.77-3.051-71.64-2.464-46.82-3.445-93.67-3.309-140.56.057-21.54.573-43.05 1.125-64.57.995-39.2 2.32-78.38 2.721-117.6.194-18.65.394-37.3.817-55.94.816-36.02 1.869-72.03 2.685-108.05.645-28.36.967-56.73 1.648-85.09.573-24.219 1.425-48.431 2.191-72.651.344-10.832.717-21.663 1.204-32.487.795-17.825 1.754-35.634 2.528-53.459 1.024-23.722 1.833-47.46 2.922-71.183.874-18.951 1.253-37.911 1.798-56.87.737-25.649 1.719-51.291 2.607-76.94.573-16.566 1.038-33.132 1.754-49.69 1.189-27.39 1.998-54.788 2.75-82.193.896-32.348 1.956-64.687 2.557-97.042.487-25.976 1.504-51.936 2.221-77.912.465-16.892.752-33.793 1.217-50.685.702-25.502 1.325-50.996 1.698-76.505.651-44.484 1.74-88.953 1.933-133.445.072-15.626.645-31.244 1.024-46.862.043-1.74.323-3.481.488-5.214h.88zM499.415-3.28c1.26 14.312.917 28.68 1.045 43.023.273 30.149-.58 60.281-1.325 90.414-.594 23.901-1.697 47.795-2.585 71.688-.566 15.292-1.017 30.583-1.74 45.867-.659 14.01-1.175 28.02-2.199 42.014-.903 12.23-1.483 24.499-2.135 36.753-1.389 26.092-2.8 52.184-4.068 78.292a4107 4107 0 0 0-3.029 77.414c-.523 17.522-1.569 35.021-2.206 52.542-.552 15.292-.781 30.599-1.296 45.899-.681 20.233-1.54 40.459-2.242 60.693-.48 13.862-.788 27.732-1.253 41.594-.616 18.314-1.254 36.628-2.249 54.927-.58 10.661-.824 21.345-1.218 32.021-1.089 29.472-2.234 58.937-3.251 88.417-.53 15.292-.767 30.599-1.247 45.891-.651 20.715-1.425 41.422-2.12 62.13-.164 4.942-.164 9.892-.358 14.826-.938 24.685-1.926 49.375-2.879 74.065-.881 22.94-1.583 45.89-2.636 68.82-1.532 33.47-1.239 66.96-1.819 100.44-.444 25.83-.386 51.67-.874 77.49-.422 22.48-1.704 44.94-2.098 67.41-.738 42.73-1.483 85.47-1.397 128.21.036 17.38-.866 34.75-.959 52.12-.086 17.21-.215 34.43.938 51.61.437 6.52.766 13.03 1.117 19.55.065 1.25.337 2.54-.508 4.22-.394-3.99-.86-7.53-1.082-11.1-1.389-21.8-2.37-43.62-1.805-65.46.903-35.08.731-70.16 1.096-105.24.322-30.77.652-61.55 1.698-92.29 1.031-30.44 1.418-60.88 1.905-91.33.386-24.24.487-48.47.838-72.7.215-14.82.293-29.66.744-44.48.659-21.67 1.576-43.32 2.428-64.99.91-23.09 1.956-46.17 2.794-69.27.959-26.601 1.726-53.199 2.621-79.796.731-21.827 1.561-43.653 2.285-65.479.472-14.336.745-28.688 1.26-43.024.673-18.796 1.547-37.584 2.242-56.373.294-7.964.53-15.929.931-23.893.58-11.616.838-23.256 1.253-34.888.824-22.938 1.698-45.875 2.486-68.813.694-20.226 1.274-40.459 1.926-60.693.602-18.641 1.096-37.281 1.877-55.914.995-23.73 1.633-47.476 2.585-71.198 1.06-26.427 2.622-52.83 3.939-79.241.688-13.846 1.232-27.7 2.013-41.539 1.103-19.565 2.442-39.107 3.524-58.673.974-17.661 1.389-35.354 1.998-53.039.823-23.893 2.177-47.763 2.943-71.657.738-23.093.874-46.217 1.562-69.317.501-16.908.494-33.809.258-50.709-.129-9.075-.738-18.143-.616-27.234h.888M700.332-3.28c-.079 10.202-.072 20.412-.265 30.614-.444 23.754-1.139 47.5-2.034 71.245-.845 22.464-1.024 44.951-1.504 67.43-.609 28.213-1.411 56.419-1.791 84.633-.408 30.125-1.088 60.25-1.633 90.375-.601 33-1.138 66-1.797 99-.494 24.546-1.039 49.099-1.748 73.645-.702 24.383-1.661 48.751-2.463 73.126-.967 29.472-1.927 58.944-2.815 88.424-.645 21.516-1.175 43.032-1.748 64.547-.637 23.746-1.26 47.499-1.912 71.245-.523 19.286-1.024 38.571-1.626 57.857-.831 26.613-1.597 53.226-2.671 79.823-1.368 33.769-1.941 67.566-2.708 101.356-1.009 44.5-.2 89.01-.501 133.51-.179 25.99.05 51.99-.336 77.99-.86 57.89-.437 115.79-.581 173.67-.086 32.86-.365 65.72-1.239 98.55-.766 28.71-.078 57.41-.702 86.1-.035 1.57.258 3.18-.336 4.75-.688-.83-.451-1.81-.459-2.71-.057-31.74-.522-63.49.323-95.22.694-25.99.272-51.99.952-77.98.394-14.99.48-29.97.172-44.95-.293-14.66-.372-29.32-.258-43.99.337-44.98.709-89.94.996-134.92.114-18.3.029-36.62.05-54.92.022-19.76.165-39.51.05-59.27-.15-24.84.086-49.68.609-74.51.68-32.03 1.576-64.06 2.693-96.081.609-17.529 1.232-35.051 1.69-52.581.516-19.604 1.203-39.2 1.755-58.805.601-21.515 1.096-43.031 1.69-64.546.745-26.932 1.54-53.856 2.306-80.787.416-14.662.781-29.325 1.261-43.979.702-21.508 1.497-43.016 2.22-64.524.466-13.862.795-27.732 1.318-41.594 1.003-26.449 1.303-52.915 1.962-79.38a7261 7261 0 0 0 1.662-86.56c.465-35.548 1.654-71.089 2.091-106.638.323-26.302.888-52.604 1.511-78.898.316-13.233.43-26.466.781-39.69.68-25.658 1.44-51.315 2.356-76.956.817-22.79.788-45.596.924-68.393h1.762zM553.173-3.28c-.058 5.897.079 11.803-.208 17.685-.931 19.448-.516 38.905-.566 58.361-.064 21.858-.967 43.677-1.826 65.503-1.039 26.287-1.697 52.589-2.936 78.86-1.676 35.533-.932 71.113-1.798 106.646-1.239 51.042-.315 102.077-.924 153.111-.373 31.252-.193 62.511-.795 93.763-.616 32.207-.373 64.43-.946 96.63-.637 36.341-1.009 72.69-1.683 109.039a6846 6846 0 0 1-2.707 103.747c-.952 28.206-1.876 56.404-2.643 84.618-1.038 38.577-2.019 77.147-2.564 115.737-.472 33.96-.974 67.93-1.862 101.87-1.332 50.85-1.518 101.71-1.203 152.56.265 43.06-.43 86.11-1.518 129.12-1.182 46.89-1.189 93.76-1.232 140.64 0 6.21.537 12.41.816 18.62.029.61 0 1.23-.652 1.9-.35-4.82-.902-9.64-1.024-14.46-.702-27.28-.186-54.55-.286-81.83-.129-33.02 1.074-66.01 1.755-99.01 1.41-68.09.479-136.2.931-204.29.157-24.24.959-48.47 1.418-72.69.293-15.47.451-30.94.723-46.4.523-29.81.91-59.63 1.69-89.44.595-22.63 1.268-45.256 1.791-67.891a3140 3140 0 0 1 1.704-54.477c.86-21.344 1.125-42.712 1.834-64.057 1.461-43.979 1.876-87.982 2.657-131.969.544-30.451.236-60.903.931-91.338 1.447-63.304 1.296-126.623 1.547-189.935.079-19.612-.365-39.239.122-58.843.802-32.208.494-64.423 1.017-96.623.301-18.485.995-36.97 1.597-55.448.53-16.239 1.081-32.479 1.776-48.711.974-22.767 2.392-45.518 2.55-68.323.129-19.13.107-38.253.279-57.383.093-10.358.451-20.715.709-31.08.036-1.43.029-2.884.638-4.212h.888M1064.27-3.28c-.76 15.913-1.52 31.834-2.26 47.748-.37 7.8-.81 15.594-1.03 23.403-1.06 38.097-2.65 76.171-3.24 114.284-.49 31.873-2.01 63.731-2.93 95.605-.56 19.441-.66 38.905-1.31 58.346-1.08 32.347-1.37 64.71-1.99 97.073-.63 33.318-1.23 66.645-1.63 99.971-.35 30.288-1.42 60.569-2.14 90.849-.45 18.967-.8 37.942-1.24 56.917-.62 26.302-1.23 52.604-1.92 78.906-.53 19.759-1.19 39.511-1.76 59.271-.56 19.122-.98 38.252-1.65 57.367-1.01 28.68-1.44 57.375-1.99 86.07-.23 11.959-.28 23.917-.69 35.868-.87 25.512-.37 51.032-1 76.532-.85 34.92-.19 69.86-.88 104.77-.59 29.49-.03 58.98-.28 88.47-.25 31.25.51 62.49.98 93.72.29 18.82.03 37.65.71 56.45.98 27.25 1.24 54.51 1.89 81.76.63 25.96 2.13 51.89 2.88 77.85.38 12.91.89 25.81 1.28 38.71.08 2.85 1.07 5.64.43 8.57-1.63-.25-1.16-1.62-1.2-2.55-.9-20.54-1.8-41.08-2.2-61.64-.29-15.29-1.44-30.56-1.95-45.85-.57-17.04-.81-34.09-1.26-51.14-.49-19.12-1.18-38.24-1.55-57.36-.31-16.43-.01-32.87-.49-49.28-1.25-44.01-.78-88.04-.88-132.05-.09-35.4.39-70.8.68-106.2.19-22.96.48-45.91.74-68.87.22-18.66.38-37.31.72-55.956.53-28.851 1.14-57.702 1.82-86.552.48-20.56 1.12-41.112 1.71-61.665.58-20.552 1.1-41.104 1.82-61.648.83-23.583 1.3-47.173 1.75-70.763.45-23.427 1.04-46.862 1.86-70.274.53-15.299.43-30.607.91-45.906 1.03-33.148 1.44-66.311 1.77-99.474.32-32.044 1.13-64.081 1.79-96.117.53-25.813 1.16-51.625 1.75-77.446.52-23.108.93-46.224 1.58-69.333.62-22.464 1.6-44.919 2.21-67.391.57-21.197.57-42.417 1.35-63.599 1.19-32.331 1.91-64.694 3.92-96.987.52-8.43.86-16.87 1.28-25.308.08-1.748.04-3.52.74-5.16h.88zM358.422-3.28c.544 9.55.179 19.107.172 28.664-.015 18.182-.065 36.372-.523 54.539-.437 17.53-.523 35.067-.874 52.596-.544 27.103-1.046 54.197-1.64 81.3-.516 23.582-1.046 47.173-1.733 70.755-.795 27.405-1.705 54.811-2.693 82.216-.766 21.182-1.741 42.348-2.6 63.529-.895 22.13-1.619 44.275-2.693 66.397-1.096 22.611-1.819 45.23-2.65 67.849-.988 27.071-2.292 54.135-3.495 81.198-.838 18.789-1.604 37.577-2.636 56.35-1.368 24.826-2.707 49.643-3.538 74.493-.451 13.372-1.081 26.745-1.74 40.109-1.21 24.671-2.005 49.356-2.729 74.058-.501 17.203-1.139 34.414-1.683 51.617-1.783 55.798-1.941 111.6-1.561 167.42.229 33.8.802 67.61 1.217 101.41.222 18.01.451 36.03.666 54.04.33 27.43.316 54.85 1.068 82.26 1.217 44.48.873 88.97.336 133.45-.251 20.87-1.561 41.74-1.389 62.63.057 7.16.565 14.33.623 21.49.15 18.66.165 37.32.229 55.99 0 1.24 0 2.49-.315 3.73-.974-2.01-.666-4.14-.673-6.23-.065-17.86.286-35.73-.251-53.57-.487-16.27-.86-32.51-.516-48.78.423-20.07 1.168-40.14 1.39-60.22.258-22.81.415-45.62.05-68.42-.659-40.97-1.103-81.94-1.791-122.91-.408-24.23-.236-48.47-.838-72.7-.637-25.5-.745-51-1.045-76.5-.366-31.24-.688-62.47-.065-93.71.251-12.43.351-24.872.573-37.304.287-15.782.502-31.57.967-47.344.781-26.605 1.69-53.21 2.614-79.807.516-14.81 1.153-29.62 1.769-44.423.86-20.699 1.655-41.399 2.665-62.091 1.217-24.989 2.685-49.963 3.946-74.944.544-10.824.788-21.663 1.282-32.487.68-14.802 1.54-29.596 2.199-44.399.522-11.779.838-23.574 1.296-35.362.745-19.107 1.54-38.214 2.299-57.328.43-10.832.802-21.664 1.246-32.495 1.032-25.479 2.099-50.949 3.13-76.428.444-10.987.838-21.982 1.239-32.976.788-21.819 1.633-43.638 2.328-65.456.515-16.092.874-32.192 1.217-48.292.645-30.281 1.032-60.577 1.927-90.849.48-16.263.458-32.518.831-48.781.702-30.11 1.396-60.22 1.446-90.344.015-7.972.043-15.945.065-23.925h.881z"/><path d="M1615.02 498.3c-8.67.373-17.28-.816-25.91-1.344-25.8-1.578-51.61-2.308-77.44-2.751-18.93-.326-37.85-1.476-56.77-2.113-17.9-.606-35.8-.816-53.7-1.562-30.07-1.251-60.18-1.166-90.22-3.085-27.4-1.748-54.84-2.346-82.24-3.722-25.95-1.297-51.91-2.502-77.87-3.45-25.08-.924-50.17-1.585-75.26-2.409-28.6-.932-57.22-1.725-85.823-2.937-18.327-.777-36.619-2.525-54.947-3.263-25.518-1.026-51.008-2.766-76.52-3.924-17.74-.808-35.502-1.197-53.228-2.23-40.014-2.339-80.058-3.497-120.101-4.841-24.644-.824-49.232-2.852-73.848-4.281-23.305-1.352-46.575-3.178-69.866-4.732-15.964-1.065-31.971-1.337-47.943-2.207-18.163-.987-36.319-2.261-54.482-3.388-14.94-.932-29.887-1.803-44.827-2.774-20.956-1.367-41.948-1.437-62.933-1.865-18.485-.373-36.978-.823-55.463-1.01-35.073-.349-70.124-1.911-105.211-1.694-13.93.086-27.867-.955-41.805-1.328-19.961-.544-39.9.582-59.853.73-25.24.194-50.471.746-75.71.94-30.955.241-61.902.319-92.857.365-18.922.031-37.837-.373-56.759-.07-20.541.335-41.082-.31-61.623-.738-17.461-.365-34.929-.513-52.383-1.181-24.05-.917-48.1-2.005-72.129-3.45-17.139-1.033-34.242-2.89-51.366-4.18-12.735-.956-25.505-1.438-38.239-2.393-9.941-.746-19.853-1.927-29.679-3.784v-.956c6.768.046 13.421 1.445 20.132 2.175 12.276 1.329 24.588 2.036 36.906 2.604 15.399.714 30.747 2.097 46.103 3.465 10.377.925 20.798 1.368 31.212 1.849 23.169 1.08 46.331 2.199 69.508 3.023 15.248.536 30.517.443 45.765.878 29.207.839 58.414.35 87.621.42 38.89.085 77.787.132 116.677-.063 24.796-.124 49.59-.722 74.386-1.111 23.183-.357 46.367-1.562 69.543-.621 35.775 1.445 71.585.753 107.36 2.167 20.39.801 40.795.288 61.185.809 26.4.676 52.821.823 79.206 2.004 27.115 1.212 54.188 3.458 81.282 5.129 13.916.854 27.817 1.833 41.762 2.206 18.636.498 37.236 1.718 55.828 3.233 18.736 1.531 37.501 2.471 56.258 3.543 12.455.715 24.888 1.818 37.336 2.587 19.782 1.228 39.592 1.531 59.388 2.254 24.057.878 48.122 1.562 72.158 2.859 19.631 1.065 39.262 2.207 58.915 2.899 19.209.676 38.396 2.043 57.59 3.038 18.178.94 36.376 1.507 54.532 2.735 30.031 2.043 60.092 3.038 90.162 3.854 20.84.567 41.66 1.305 62.5 1.958 31.38.987 62.77 2.144 94.13 3.66 22.57 1.087 45.15 2.136 67.73 2.906 15.98.544 31.94 2.051 47.91 2.665 24.35.932 48.71 1.259 73.06 2.238 22.73.917 45.48 1.173 68.22 1.919 20.53.676 41.06 1.826 61.59 2.238 16.29.326 32.58.668 48.85 1.476 14.07.699 28.13 1.787 42.19 2.696v1.912zM1615.02 815.138c-4.69.583-9.39.108-14.05-.163-14.07-.824-28.14-1.757-42.18-3.008-26.63-2.377-53.3-3.644-80.01-4.592-34.34-1.22-68.69-1.46-103.02-2.564-11.88-.381-23.79-.342-35.68-.171-22.63.327-45.21-.715-67.78-2.245-20.08-1.36-40.16-2.642-60.23-3.932-16.41-1.057-32.85-1.469-49.25-2.79-21.22-1.701-42.42-3.659-63.68-4.716-18.92-.94-37.8-2.541-56.68-4.227-10.23-.917-20.49-1.523-30.74-2.269-9.08-.66-18.165-1.197-27.225-2.02-11.861-1.065-23.764-.894-35.632-1.71-10.986-.761-21.994-1.142-32.959-2.16-18.579-1.725-37.193-2.704-55.793-4.048-27.538-1.997-55.119-2.821-82.693-3.963-22.439-.924-44.892-1.841-67.295-3.45-30.482-2.183-61.021-2.432-91.517-3.97-17.597-.886-35.187-1.857-52.792-2.448a8293 8293 0 0 0-62.059-1.841c-10.564-.272-21.142-.102-31.706-.482-21.716-.777-43.403-2.207-65.132-2.603-34.937-.637-69.866-1.29-104.796-2.122-20.834-.497-41.683-1.056-62.496-2.136-17.439-.902-34.843-2.642-52.297-3.202-35.653-1.15-71.299-2.688-106.966-3.481-27.896-.614-55.8.039-83.688-.66-38.167-.956-76.341-.933-114.508-.614-15.993.132-31.985 1.065-47.993.692-22.302-.521-44.605-1.228-66.908-1.733-36.125-.816-72.229.272-108.312 1.919-20.096.917-40.172 2.222-60.29 2.238-15.728.015-31.384 1.22-47.012 2.898-4.533.49-9.081.676-13.636.482v-.956c21.493-1.834 42.943-4.406 64.551-4.374 16.881.023 33.748-.754 50.6-1.982 15.972-1.165 31.979-1.072 47.965-1.733 35.366-1.46 70.725-.536 106.091.109 15.986.288 31.972 1.492 47.965.987 15.549-.49 31.105-1.181 46.654-.971 30.23.396 60.462-.195 90.7.621 18.034.49 36.082.179 54.124.334 17.024.148 34.048.482 51.073 1.011 13.493.427 26.993.551 40.487 1.15 14.811.66 29.622 1.305 44.44 1.693 22.754.591 45.408 3.039 68.133 3.979 19.359.8 38.732 1.212 58.106 1.647 29.93.668 59.86 1.352 89.791 1.772 29.214.411 58.371 2.572 87.578 3.255 12.476.296 24.952.218 37.428.591 24.495.73 49.011 1.274 73.483 2.603 26.099 1.422 52.212 2.036 78.31 3.069 20.527.808 41.046 2.083 61.558 3.357 31.069 1.935 62.181 2.595 93.25 4.211 22.575 1.174 45.129 2.743 67.675 4.429 24.014 1.795 48.007 3.878 72.079 4.561 22.159.63 44.244 2.821 66.334 4.538 25.62 1.997 51.23 3.986 76.88 5.501 17.14 1.011 34.23 2.899 51.35 4.056 19.63 1.329 39.28 2.215 58.92 3.419 19.19 1.174 38.38 2.347 57.56 3.8 25.66 1.943 51.33 1.904 77.02 1.663 18.35-.171 36.69.808 55.03 1.064 22.32.311 44.61 1.197 66.92 1.702 24.23.552 48.39 1.904 72.54 3.986 20.04 1.725 40.08 3.536 60.19 4.103.74.023 1.47-.016 2.21-.016v1.912zM1615.02 416.94c-10.69-.824-21.42-.614-32.12-1.088-15.99-.707-31.96-1.826-47.94-2.409-17.76-.652-35.53-.598-53.27-1.398-18.48-.832-36.92-2.549-55.39-3.458-25.51-1.259-51-2.984-76.5-4.444-25.64-1.461-51.29-3.015-76.95-4.181-13.2-.598-26.42-.272-39.63-.668-16.28-.482-32.56-1.197-48.82-2.207-14.8-.924-29.63-1.313-44.43-2.222-10.69-.661-21.35-1.803-32.03-2.696-13.46-1.127-26.93-2.168-40.39-3.334-30.87-2.673-61.77-4.763-92.731-5.827-28.756-.987-57.526-1.803-86.239-3.598-28.447-1.779-56.924-1.686-85.372-2.991-28.018-1.29-56.05-1.283-84.075-1.889-26.414-.575-52.827-.085-79.227-.823-17.898-.505-35.789-1.57-53.694-1.904-20.985-.396-41.941-1.686-62.897-2.898-24.767-1.438-49.519-2.992-74.228-5.385-17.833-1.725-35.753-2.113-53.637-2.968-19.351-.925-38.703-1.943-58.063-2.673-17.16-.653-34.313-1.523-51.452-2.673-17.576-1.181-35.173-1.904-52.763-2.782-20.233-1.01-40.451-2.455-60.684-3.217-23.749-.893-47.492-2.331-71.27-1.934-11.151.186-22.295.893-33.447 1.103-16.286.311-32.58.155-48.86.622-14.96.427-29.915 1.305-44.862 2.183-17.891 1.049-35.81.715-53.709 1.399-20.533.784-41.046 1.942-61.572 2.999-17.884.925-35.753 2.16-53.637 3.046-30.231 1.499-60.462.295-90.686-.381-12.899-.287-25.776-1.702-38.654-2.681-15.971-1.212-31.978-1.251-47.971-1.732s-32-1.018-47.993 0c-10.12.637-20.233 1.173-30.367.613-3.811-.209-7.614-.45-11.424-.676v-.955c3.51-.878 7.026-.062 10.514.124 8.229.435 16.458.412 24.638-.218 24.215-1.872 48.422-.575 72.63-.209 17.332.256 34.6 1.429 51.868 2.913 16.544 1.422 33.132 1.36 49.719 1.485 20.827.163 41.662.676 62.482-.49 17.876-1.002 35.731-2.533 53.622-3.318 26.686-1.173 53.343-3.116 80.072-3.201 20.111-.062 40.186-1.36 60.262-2.595 11.853-.731 23.756-.863 35.638-.871 21.136-.015 42.25-.761 63.377-1.274 14.969-.357 29.931.358 44.892.839 23.764.77 47.499 1.966 71.241 3.194 17.734.917 35.481 1.554 53.193 2.82 31.04 2.223 62.117 3.388 93.186 4.779 25.361 1.134 50.729 2.347 76.075 3.839 12.742.745 25.44 2.307 38.174 3.286 11.71.902 23.434 1.562 35.159 2.23 17.146.979 34.284 2.215 51.445 2.735 44.448 1.36 88.881 3.528 133.372 3.21 26.55-.195 53.121.458 79.663 1.219 19.954.568 39.893 1.671 59.854 1.749 24.673.093 49.246 2.541 73.891 3.38 14.374.497 28.749.901 43.116 1.484 20.82.847 41.647 1.663 62.461 2.805 12.75.699 25.47 1.942 38.19 2.984 18.29 1.499 36.6 2.859 54.86 4.623 15.78 1.523 31.58 2.72 47.41 3.45 39.14 1.81 78.28 3.691 117.47 4.165 15.98.194 31.95 1.647 47.92 2.572 17.44 1.01 34.88 1.927 52.3 3.178 17.58 1.258 35.18 1.896 52.75 2.89 15.97.909 31.91 2.525 47.88 3.334 13.92.707 27.88.621 41.81 1.064 12.61.396 25.23.847 37.83 1.608 18.18 1.104 36.37 1.469 54.56 2.044 1.17.039 2.36-.186 3.48.389v1.911zM-461.979 659.112c2.278-.839 4.634-.528 6.969-.622 16.881-.652 33.748.102 50.615.591 25.239.738 50.485.023 75.731.047 22.754.015 45.487.66 68.233 1.437 26.4.901 52.821.894 79.22 1.663 20.684.606 41.375 1.228 62.031 2.743 14.052 1.033 28.082 2.494 42.134 3.395 23.878 1.539 47.764 2.93 71.692 3.326 21.859.357 43.718 1.5 65.576 1.647 37.58.249 75.166.342 112.753.024 24.064-.21 48.136.186 72.201.396 22.889.202 45.772.388 68.662-.031 24.946-.451 49.906-.171 74.865-.226 28.928-.062 57.798 1.811 86.697 2.759 33.003 1.08 66.02 1.888 99.016 3.077 45.615 1.647 91.237 3.186 136.838 5.361 35.044 1.679 70.053 4.033 105.082 5.968 28.29 1.562 56.581 3.015 84.842 5.027 21.236 1.515 42.464 2.86 63.728 3.598 31.678 1.103 63.344 2.603 95.044 3.193 34.93.653 69.84 1.943 104.76 2.533 26.28.443 52.56.218 78.84.319 24.37.093 48.73.287 73.09.342 39.19.085 78.36.062 117.55.163 18.04.047 36.07 1.049 54.11 1.966 22.43 1.142 44.78 3.248 67.14 5.431 18.56 1.811 37.13 3.543 55.76 4.383 1.3.062 2.67-.055 3.82.847v1.911c-15.24-.808-30.46-2.02-45.67-3.427-18.13-1.678-36.24-3.543-54.39-4.98-12.73-1.01-25.49-1.407-38.23-2.153-20.52-1.196-41.06-1.662-61.61-1.74-32.16-.125-64.31-.008-96.46-.194-35.52-.202-71.05.085-106.56-.63-20.83-.419-41.68.117-62.51-.396-33.6-.832-67.2-1.43-100.81-2.51-21.86-.699-43.73-1.251-65.582-2.245-24.337-1.112-48.695-1.757-73.01-3.59-24.014-1.819-48.065-2.976-72.101-4.398-31.069-1.834-62.138-3.613-93.2-5.455-38.696-2.292-77.414-3.986-116.14-5.322-23.47-.809-46.94-1.71-70.417-2.316-25.676-.668-51.345-1.639-77.007-2.634-53.844-2.082-107.696-3.784-161.583-2.774-22.16.412-44.319.513-66.486.272-17.912-.194-35.817-.443-53.729-.49-23.191-.054-46.382.241-69.573.101-28.039-.171-56.086.42-84.125-.52-30.812-1.041-61.652-1.08-92.441-2.79-19.932-1.103-39.857-2.284-59.739-4.203-19.008-1.834-38.095-2.401-57.168-3.116-23.327-.878-46.661-1.282-70.002-1.445-25.984-.179-51.911-2.339-77.902-2.231-21.865.086-43.738.21-65.604.257-14.095.031-28.176-.35-42.256-.956-11.889-.513-23.778-.435-35.668-.194-2.342.047-4.691.225-7.018-.21v-.956zM-461.979 827.578c4.727-.513 9.354.645 14.024 1.018 13.364 1.08 26.7.21 40.057-.015 24.666-.428 49.297-1.826 73.92-3.21 18.335-1.033 36.684-.66 55.019-1.002 13.5-.256 27.001-.886 40.509-.52 17.754.474 35.509 1.041 53.264 1.678 32.272 1.173 64.537 2.51 96.831 2.828 14.668.148 29.336 1.166 44.004 1.484 17.31.381 34.643.148 51.954.684 35.065 1.088 70.138 1.438 105.21 2.145 22.453.45 44.899.885 67.352 1.189 18.937.256 37.873.194 56.81.497 53.286.847 106.571-.583 159.864-.07 24.796.241 49.591.163 74.386.365 21.429.171 42.872.179 64.286.909 20.24.684 40.466 1.881 60.72 2.199 39.922.63 79.822 2.121 119.729 3.155 19.66.505 39.327 1.01 58.958 2.245 19.194 1.205 38.374 2.635 57.59 3.342 20.684.769 41.361 1.655 62.038 2.408 17.454.63 34.929.824 52.369 1.78 30.489 1.678 61.005 2.665 91.445 5.431 16.37 1.492 32.83 1.88 49.22 3.264 17.85 1.507 35.74 2.509 53.61 3.543 18.61 1.08 37.23 1.927 55.84 3.053 16.85 1.018 33.68 2.262 50.53 3.435 17.87 1.243 35.78 1.593 53.68 2.075 20.39.543 40.78 1.453 61.18 1.903 25.09.552 50.19.684 75.29 1.205 17.32.357 34.62 1.119 51.94 1.6 14.95.42 29.91.56 44.87.63 13.06.062 26.11.629 39.17 1.196 13.79.599 27.56 1.461 41.34 2.207v1.911c-11.46.171-22.88-.924-34.31-1.437-16.13-.73-32.25-1.678-48.41-1.546-29.35.248-58.67-1.725-88.02-2.207-18.93-.311-37.85-.862-56.78-1.111-24.95-.326-49.89-1.072-74.83-2.121-14.37-.606-28.76-.785-43.14-1.143-13.21-.326-26.37-1.577-39.56-2.37-12.6-.761-25.2-1.608-37.81-2.369-13.63-.824-27.26-1.609-40.89-2.394-14.06-.808-28.14-1.492-42.2-2.401-24.47-1.577-48.94-3.038-73.38-4.996-46.271-3.706-92.602-5.664-138.977-6.869-18.929-.489-37.837-1.74-56.766-2.3-20.985-.621-41.927-2.051-62.876-3.349-38.11-2.362-76.269-2.836-114.414-3.924-27.438-.784-54.876-1.297-82.314-2.113-31.398-.933-62.768-2.689-94.188-2.564-22.747.085-45.501-.156-68.248-.412-24.809-.28-49.611-.365-74.413-.171-25.533.202-51.066.583-76.592.567-19.23-.015-38.453-.59-57.683-.816-16.143-.194-32.287-.116-48.423-.38-34.048-.56-68.097-1.43-102.145-1.842-29.945-.365-59.86-2.121-89.812-1.779-23.055.264-46.053-1.85-69.1-1.935-34.213-.117-68.369-2.23-102.547-3.466-19.516-.707-39.026-1.258-58.557-.909-22.159.397-44.333.366-66.485 1.003-16.724.481-33.418 2.066-50.142 2.564-21.414.637-42.822 1.888-64.258 1.095-6.596-.248-13.185-.815-19.717-1.911v-.956zM1615.02 569.133c-37.26-1.585-74.53-1.733-111.81-2.494-35.22-.715-70.43-1.764-105.66-2.23-23.18-.311-46.38-.156-69.55-1.173-21.7-.956-43.41-1.477-65.08-3.427-13.89-1.251-27.84-1.671-41.76-2.502-17.58-1.057-35.17-2.253-52.75-3.201-12.9-.692-25.81-1.182-38.71-1.593-21.87-.692-43.7-2.106-65.54-3.194-14.51-.715-29.05-.925-43.57-1.5-16.13-.644-32.256-1.46-48.393-2.175-12.318-.544-24.644-.979-36.963-1.601-21.4-1.088-42.793-2.339-64.194-3.434-17.009-.871-34.012-1.857-51.029-2.355-33.454-.979-66.916-2.214-100.377-2.323-46.825-.155-93.629-1.406-140.448-2.051-23.198-.319-46.396.147-69.594-.249-31.993-.552-63.993-.334-95.986-1.305-21.565-.653-43.144-.847-64.702-1.718-28.462-1.142-56.938.319-85.393-.893-14.955-.637-29.909-1.531-44.863-2.191-15.685-.684-31.406-.793-47.07-1.912-43.688-3.131-87.413-3.621-131.173-3.294-21.436.155-42.872-.303-64.3.132-22.748.466-45.473 1.911-68.212 2.463-24.803.606-49.591 1.981-74.4 1.608-15.119-.233-30.231-.94-45.35-.924-32 .023-64.001-.964-96.001-.35-19.531.381-39.026-.583-58.528-1.663-17.597-.979-35.137-2.572-52.584-5.237a248 248 0 0 0-43.015-2.805v-.956c8.802-.792 17.597-.233 26.378.358 13.042.878 25.941 3.256 38.925 4.724 10.966 1.236 21.966 1.717 32.953 2.362 15.384.909 30.79 1.896 46.203 1.531 31.563-.746 63.119.179 94.675.093 22.167-.062 44.319.956 66.471.917 13.35-.023 26.707-.707 40.058-1.041 18.342-.459 36.705-.552 55.026-1.71 39.756-2.509 79.556-1.087 119.334-1.585 27.159-.342 54.31.288 81.454 1.321 15.549.591 31.062 1.997 46.611 2.704 29.909 1.368 59.818 2.759 89.741 3.644 18.192.537 36.412-.046 54.618.226 23.033.349 46.073.823 69.099 1.678 28.319 1.057 56.652.863 84.971 1.515 34.063.785 68.126.164 102.181.77 36.985.652 73.97 1.927 110.955 1.849 36.119-.07 72.194 1.608 108.305 1.904 18.478.147 36.949 1.6 55.42 2.486 14.661.699 29.329 1.399 43.99 2.152 15.978.816 31.95 1.772 47.928 2.526 12.763.598 25.54.769 38.296 1.484 24.333 1.36 48.713 1.36 73.043 2.867 34 2.106 68.04 2.883 102.06 4.662 19.78 1.034 39.56 2.518 59.35 3.435 22.88 1.064 45.69 3.348 68.57 4.32 14.81.629 29.63 1.142 44.44 1.787 23.47 1.018 46.96.388 70.43.886 27.73.582 55.46 1.235 83.2 1.826 26.27.559 52.54.924 78.81 1.142 12.47.101 24.94.816 37.41 1.274 2.06.078 4.1.202 6.11-.419v2.875zM1615.02 147.959c-7.13 1.181-14.33.8-21.5 1.111-37.28 1.632-74.54-.187-111.81-.8-22.9-.373-45.76-1.99-68.66-2.401-37.57-.676-75.13-1.896-112.71-1.912-22.3 0-44.6-.878-66.91-.381-25.24.568-50.48.024-75.72-.209-21.87-.202-43.74-.101-65.61-.358-50.63-.59-101.281-.046-151.91-1.352-23.184-.598-46.353-1.779-69.536-2.144-42.565-.676-85.136-.91-127.707-1.407-19.811-.233-39.621-.754-59.431-.917-14.382-.116-28.77.28-43.152-.194-21.271-.707-42.557-1.173-63.821-2.137-35.781-1.624-71.52-4.172-107.345-4.701-27.588-.404-55.184-1.266-82.758-2.416-20.24-.847-40.458-2.308-60.712-2.72-28.326-.575-56.652-1.313-84.986-1.562-19.373-.171-38.753.031-58.113-.738-27.874-1.103-55.778-.707-83.645-1.81-29.787-1.174-59.574-1.648-89.376-1.888-23.928-.195-47.842.551-71.756 1.018-28.327.551-56.66.217-84.993.279-31.993.07-63.986.295-95.979.187-19.524-.07-39.047-1.158-58.564-.871-36.999.552-73.991.552-110.991.607-15.269.023-30.539-.218-45.808-.319-1.168 0-2.335.171-3.502.264v-1.911c34.499.816 68.999.567 103.499.38 30.095-.163 60.183-1.188 90.278-.209 25.246.823 50.492.116 75.746.256 27.438.155 54.875-.575 82.306-.155 30.99.466 61.93-1.181 92.9-1.36 38.753-.218 77.493.241 116.233 1.725 23.319.893 46.675.878 70.009 1.36 14.381.295 28.763.854 43.144 1.095 13.2.218 26.399.016 39.599.233 28.183.459 56.373.816 84.541 1.702 23.033.723 46.038 2.339 69.071 3.209 20.391.777 40.802.995 61.2 1.616 27.287.832 54.582 1.306 81.834 3.303 24.601 1.802 49.275 2.284 73.92 3.255 30.381 1.197 60.763.055 91.137.894 29.644.824 59.302.365 88.938 1.173 23.349.637 46.69.381 70.031.808 20.541.381 41.067 1.609 61.608 2.098 20.985.505 41.977.513 62.969.847 17.302.272 34.612.187 51.922.148 43.45-.093 86.89.606 130.35.878 34.04.21 68.08-.715 102.12-.093 25.39.466 50.79.287 76.18.963 32.57.863 65.16 1.049 97.71 2.782 24.05 1.274 48.12 1.499 72.18 2.082 20.7.498 41.39.847 62.09.148 6.9-.233 13.79-.505 20.69-.731 1.6-.054 3.23-.31 4.8.304v.971M-461.979 57.025c5.537.963 11.13.559 16.695.823 15.692.762 31.392 1.329 47.077 2.176 16.136.878 32.293.606 48.429 1.064 19.675.552 39.349.529 59.016.179 26.858-.474 53.723-.653 80.573-1.842a2494 2494 0 0 1 115.345-2.478c23.922.039 47.843.318 71.764.63 33.318.427 66.643.341 99.961.07 26.414-.218 52.828-.576 79.234-.335 35.961.326 71.922.614 107.882.808 32.724.179 65.44-.155 98.164-.264 33.905-.117 67.796-.987 101.694-1.469 26.12-.373 52.24-.505 78.36-.963 19.796-.342 39.599.155 59.395.039 20.097-.117 40.187-.187 60.276-.024 40.065.334 80.129.296 120.187.964 23.484.388 46.969.482 70.453.707 25.984.249 51.961.598 77.945.715 39.191.17 78.379.085 117.569.295 20.83.109 41.67.373 62.49.971 19.08.552 38.13 1.788 57.2 2.487 23.18.854 46.33 2.191 69.5 3.325 20.23.995 40.48 1.81 60.71 2.852 22.72 1.166 45.43 2.424 68.14 3.738 31.5 1.818 63 3.83 94.51 5.563 16.41.901 32.85 1.399 49.28 2.051 25.67 1.026 51.34 1.702 77.03 2.013 9.38.116 18.75.52 28.14.792v1.912c-29.94-.66-59.88-1.181-89.81-2.044-18.93-.544-37.85-1.507-56.77-2.424-20.09-.971-40.17-2.082-60.25-3.201-19.06-1.065-38.11-2.254-57.16-3.334-23.31-1.313-46.61-2.626-69.92-3.823-17.89-.917-35.79-1.492-53.68-2.494a3565 3565 0 0 0-68.19-3.147c-23.03-.847-46.04-2.261-69.09-2.65-48.15-.808-96.308-.714-144.458-.9-51.524-.195-103.048-.747-154.572-1.337-39.778-.459-79.549-.933-119.327-.987-38.74-.054-77.479-.225-116.219-.155-21.866.038-43.739.42-65.605.714-24.952.334-49.898.606-74.843 1.135-37.723.8-75.445 1.002-113.168.94-39.341-.062-78.683.17-118.024-.614-25.969-.52-51.946-.07-77.923-.17-41.247-.164-82.486.73-123.74.077-41.976-.668-83.96-1.08-125.944-.35-27.889.49-55.757 1.632-83.632 2.619-24.501.862-49.024 1.088-73.547 1.243-31.57.194-63.126-.225-94.683-1.189-17.017-.52-34.019-1.74-51.029-2.548-5.128-.241-10.278-.171-15.413-.241v-1.912zM-461.979 263.781c25.677 1.717 51.374 1.142 77.05.334 29.35-.924 58.722-.753 88.065-1.771 28.032-.972 56.072-.948 84.104-1.655 38.446-.964 76.913-.754 115.352-2.129 15.406-.552 30.804.645 46.21 1.08 12.612.357 25.232.419 37.852.598 20.841.295 41.676.513 62.517.878 21.43.373 42.83 1.601 64.244 2.494 35.789 1.492 71.563 3.388 107.381 4.08 17.905.349 35.789 1.414 53.672 2.385 17.44.948 34.908.622 52.355.964 18.493.365 36.985 1.017 55.477 1.476 11.739.295 23.485.311 35.216.738 18.192.661 36.377 1.562 54.561 2.362 18.342.808 36.699.42 55.048.793 28.326.575 56.659.077 84.978 1.274 17.597.746 35.223.878 52.827 1.368 18.342.512 36.684 1.445 55.026 1.616 29.229.264 58.364 2.657 87.542 3.97 16.716.754 33.447 1.352 50.156 2.215 21.107 1.088 42.206 2.401 63.313 3.582 19.051 1.064 38.088 2.448 57.16 3.248 18.471.769 36.923 2.238 55.393 3.24 15.54.847 31.09 1.438 46.63 2.215 17.88.901 35.76 2.043 53.65 2.781 14.66.606 29.35.599 44.01 1.166 15.7.606 31.37 1.6 47.06 2.377 9.97.49 19.94.871 29.91 1.345 19.21.909 38.41 1.647 57.61 2.828 35.6 2.183 71.23 4.196 106.78 7.102 31.23 2.549 62.48 2.518 93.74 2.751 16.88.124 33.75.963 50.63 1.103 17.18.14 34.33.769 51.47 1.616v1.912c-9.97-.412-19.93-.964-29.91-1.197-18.05-.412-36.12-.264-54.15-1.026-23.64-1.002-47.28-.093-70.91-.924-18.33-.653-36.65-1.888-54.95-3.388-10.83-.886-21.68-1.267-32.53-1.958-10.4-.661-20.81-1.282-31.19-2.176-17.42-1.499-34.87-2.245-52.32-3.077-22.28-1.064-44.57-1.888-66.85-2.999-23.9-1.189-47.77-2.836-71.7-3.155-13.22-.179-26.42-.699-39.61-1.383-27.56-1.43-55.12-2.906-82.68-4.39-20.67-1.119-41.338-2.238-62-3.45-18.027-1.057-36.033-2.471-54.067-3.31-20.97-.979-41.926-2.362-62.89-3.442-20.376-1.041-40.781-1.601-61.142-2.883-31.22-1.974-62.475-2.611-93.723-3.644-36.684-1.212-73.369-2.09-110.06-3.007-23.033-.575-46.081-.443-69.128-.544a1556 1556 0 0 1-81.855-2.541c-15.972-.917-31.993-.8-47.986-1.204-20.548-.521-41.089-1.228-61.637-1.617-16.43-.31-32.881.156-49.297-.823-24.773-1.477-49.568-2.059-74.363-2.899-31.098-1.049-62.203-2.307-93.279-3.869-27.43-1.383-54.862-2.098-82.314-2.417-24.938-.279-49.884-.45-74.822-1.095-17.604-.451-35.201-1.616-52.813-1.041-30.374.986-60.763.598-91.13 1.515-31.263.94-62.539.171-93.787 1.709-21.866 1.072-43.754.396-65.612 1.119-27.889.925-55.771 1.43-83.66 1.251-7.048-.047-14.088-.412-21.128-.622-1.168-.038-2.342-.388-3.488.109v-1.911zM-461.979 594.977c2.171-.738 4.384-.21 6.568-.21 17.318 0 34.629-1.243 51.954-.536 22.618.917 45.171-1.111 67.76-1.601 29.493-.637 58.994-1.476 88.48.311 25.383 1.539 50.779.886 76.176 1.212 21.15.264 42.263-1.259 63.399-1.259 19.667 0 39.334.319 58.994.195 23.491-.156 46.976.225 70.453 1.196 24.208 1.003 48.408 2.495 72.63 1.477 23.077-.972 46.06 1.08 69.093 1.67 23.04.591 46.095.249 69.143.591 17.604.264 35.208.777 52.791 2.214a781 781 0 0 0 41.332 2.269c28.763.824 57.519 1.888 86.296 2.059 19.961.117 39.9 1.313 59.868 1.298 36.555-.039 73.089 1.399 109.637 1.904 28.756.396 57.526.45 86.274 1.779 27.861 1.29 55.728 2.455 83.596 3.551 19.803.777 39.613 1.197 59.409 2.036 39.621 1.678 79.263.831 118.89 1.266 24.366.264 48.724.964 73.086 1.446 19.96.396 39.93.116 59.9 0 24.52-.148 49.02.528 73.5 1.701 18.77.894 37.55.591 56.32.886 13.8.218 27.57 1.344 41.35 2.067 16.12.839 32.25 1.453 48.39 2.168 27.71 1.227 55.46 1.593 83.14 3.621 15.37 1.119 30.77 1.748 46.19 2.261 15.1.497 30.18 1.74 45.28 2.517 15.98.832 31.97 1.314 47.94 2.285 28.6 1.733 57.24 1.243 85.84 2.02 7.78.21 15.55.466 23.33.699v1.912c-16.88-.016-33.75-1.142-50.64-1.111-24.66.046-49.32-.933-73.95-2.184-24.93-1.259-49.84-2.991-74.77-4.11-17.01-.769-34.04-1.251-51.03-2.401-35.76-2.417-71.59-2.953-107.38-4.608-14.81-.684-29.6-1.865-44.41-2.611-14.66-.738-29.34-.994-44.02-.963-20.12.039-40.21-1.205-60.31-1.842-16.72-.528-33.47-.707-50.2-.559-27.74.248-55.49.342-83.229-.754-27.295-1.072-54.604-.489-81.906-.893-21.429-.311-42.872.318-64.301-.482-37.708-1.414-75.416-2.782-113.118-4.212-23.326-.885-46.646-1.973-69.98-2.727-16.144-.521-32.294-.28-48.444-.676-37.279-.917-74.565-1.733-111.85-2.16-40.223-.459-80.445-1.368-120.66-2.308-27.438-.637-54.89-1.274-82.285-3.52-25.196-2.067-50.464-2.269-75.717-2.144-27.61.14-55.191-.723-82.758-2.324-11.151-.645-22.31.094-33.461.358-22.768.544-45.508-.56-68.24-1.562-27.295-1.204-54.604-1.282-81.913-1.088-21.436.156-42.886-.987-64.301.039-29.651 1.414-59.302.575-88.953.94-11.452.14-22.904-.419-34.335-1.204-16.136-1.111-32.286-.785-48.437-.909-28.054-.218-56.065 1.305-84.09 2.222-10.85.357-21.722-.218-32.58-.194-15.119.031-30.245.248-45.364.342-1.454.007-2.915-.265-4.369-.404v-.956zM-461.979 187.206c11.882-.373 23.75-1.205 35.646-1.228 53.293-.124 106.572-2.541 159.879-1.585 20.254.365 40.501.793 60.756 1.181 11.008.21 22.009.358 33.017.629 17.905.451 35.774 2.021 53.687 2.098 38.016.171 76.01 1.469 114.034 1.368 32.73-.085 65.476.622 98.2 1.624 32.866 1.01 65.747 1.593 98.614 2.766 25.962.933 51.932 1.842 77.895 2.813 49.905 1.857 99.81.831 149.715.723 29.215-.063 58.422.303 87.628.233 44.921-.101 89.827.909 134.726 1.942 15.105.35 30.188 1.679 45.286 2.557 17.296 1.01 34.585 1.989 51.875 3.046 12.598.769 25.189 1.725 37.787 2.463 16.709.979 33.447 1.095 50.177 1.196 28.777.179 57.548.49 86.325-.054 33.611-.637 67.216-1.717 100.832-1.896 44.77-.233 89.54-.21 134.31.272 22.74.249 45.5-.179 68.24.295 27.3.567 54.6.055 81.89 1.096 17.61.676 35.21 1.251 52.82 1.647 17.16.381 34.31 1.406 51.46 2.347 21.55 1.189 43.12 1.624 64.69 2.206 21.57.583 43.15 1.407 64.73 1.819 27.58.52 55.19.722 82.77 1.056v1.912c-29.35-.389-58.71-.598-88.06-1.212-27.15-.568-54.29-1.857-81.44-2.308-29.95-.505-59.82-3.015-89.76-3.792-43.14-1.119-86.27-2.517-129.44-2.595-24.5-.047-49.01-.109-73.51-.365-35.51-.373-71.03-.202-106.54-.42-40.52-.249-81.017.979-121.526 1.717-42.872.777-85.73.451-128.595-.303-22.31-.396-44.555-2.416-66.822-3.869-13.035-.855-26.091-1.438-39.133-2.184-14.368-.823-28.72-1.826-43.095-2.502-11.144-.528-22.302-.777-33.454-.963-27.294-.474-54.596-.972-81.891-1.212-32.15-.28-64.301-.599-96.444-.35-43.309.334-86.625.536-129.934.155-26.858-.233-53.709-1.453-80.552-2.408-29.494-1.049-58.994-1.733-88.48-2.704-43.875-1.446-87.757-2.153-131.64-3.116-21.564-.474-43.15-.094-64.723-.334-23.047-.257-46.095-.622-69.135-1.267-16.287-.458-32.552-1.671-48.831-2.176-14.088-.442-28.19-.147-42.278-.567-42.421-1.274-84.863-1.74-127.277-.8-32.287.715-64.588.668-96.874 1.601-5.852.17-11.689.878-17.555.404z"/></g><path fill="#D9E7D0" fill-opacity=".27" d="M0 0h1512v897H0z"/></svg>